<svg xmlns="http://www.w3.org/2000/svg" xmlns:xlink="http://www.w3.org/1999/xlink" width="432" height="90" viewBox="0 0 432 90">
  <defs>
    <clipPath id="clip-Artboard_1">
      <rect width="432" height="90"/>
    </clipPath>
  </defs>
  <g id="Artboard_1" data-name="Artboard – 1" clip-path="url(#clip-Artboard_1)">
    <rect width="432" height="90" fill="#fff"/>
    <g id="Group_12" data-name="Group 12" transform="translate(29 -98)">
      <g id="Group" transform="translate(-112.27 -321.06)">
        <path id="Path_24" data-name="Path 24" d="M17.646-16.954a19.7,19.7,0,0,1,1.823,1.886,1.011,1.011,0,0,1-.335,1.593q-1.048.775-1.718-.21-.5-.65-1.383-1.614-.964-.964.126-1.718A1.132,1.132,0,0,1,17.646-16.954Zm-3.165,4.841h4.59A1.074,1.074,0,0,1,20.286-10.9a1.074,1.074,0,0,1-1.216,1.216H14.733q.231,1.718.629,3.626a19.365,19.365,0,0,0,1.446-1.949,1.154,1.154,0,0,1,1.635-.524q1.153.482.5,1.635a21.114,21.114,0,0,1-2.871,3.584Q17.017-.671,17.96-.671q.314,0,.5-.775a3.781,3.781,0,0,1,.513-1.729q.409-.618,1.121-.115a1.44,1.44,0,0,1,.492,1.037,3.286,3.286,0,0,1-.01,1.268,4.618,4.618,0,0,1-.985,2.295,2.557,2.557,0,0,1-1.865.618q-2.18,0-3.667-3.4A23.951,23.951,0,0,1,11.233.566,1.311,1.311,0,0,1,9.41.251,1.321,1.321,0,0,1,9.022-.828q.115-.43.87-.807A23.973,23.973,0,0,0,13.2-3.919a37.612,37.612,0,0,1-1.09-5.763H7.8V-7.23q.335-.063,1.027-.2t1.048-.2q1.216-.231,1.32,1.048A1.1,1.1,0,0,1,10.206-5.3L7.8-4.8v3.667A4.019,4.019,0,0,1,7.534.5a1.754,1.754,0,0,1-.891.859,6.9,6.9,0,0,1-2.305.461Q2.808,1.865,2.473.817,2.2.021,2.641-.346a2.106,2.106,0,0,1,1.4-.346q.189,0,.419-.01t.272-.01q.524,0,.524-.44V-4.275q-.5.1-1.394.283T2.62-3.73A1.129,1.129,0,0,1,1.132-4.736a1.506,1.506,0,0,1,.031-1.058,1.091,1.091,0,0,1,.849-.472q1.341-.21,3.248-.545V-9.682H2.431A1.074,1.074,0,0,1,1.216-10.9a1.074,1.074,0,0,1,1.216-1.216H5.26v-2.431q-.671.1-2.368.335a1.138,1.138,0,0,1-1.362-.838q-.377-1.174.964-1.362a54.3,54.3,0,0,0,6.224-1.362,1.284,1.284,0,0,1,1.509.587q1.048,1.341-.545,1.76-1.216.293-1.886.419v2.892h4.066q-.147-2.012-.21-4.548a1.136,1.136,0,0,1,1.3-1.32,1.176,1.176,0,0,1,1.32,1.341Q14.272-14.565,14.481-12.113ZM30.6-13.895h1.739v-.692q0-.524-.5-.524H30.6Zm1.739,1.844H30.6v1.257h1.236q.5,0,.5-.524Zm-4.045-4.988h4.569a1.339,1.339,0,0,1,1.006.388,1.4,1.4,0,0,1,.377,1.016v5.386a1.36,1.36,0,0,1-.377,1.006,1.36,1.36,0,0,1-1.006.377H30.6V.65A1.019,1.019,0,0,1,29.445,1.8,1.028,1.028,0,0,1,28.271.65V-17q-.65,1.886-1.467,3.709V.65a1.056,1.056,0,0,1-1.195,1.195A1.065,1.065,0,0,1,24.394.65V-8.886Q23.137-7,22.319-8.844a1.911,1.911,0,0,1-.21-.975,1.7,1.7,0,0,1,.419-.891,23.5,23.5,0,0,0,3.144-6.2,1.131,1.131,0,0,1,.891-.733,2.117,2.117,0,0,1,1.289.021.819.819,0,0,1,.367.231A.305.305,0,0,1,28.292-17.038ZM39.106-12.05H37.22v.733q0,.524.5.524h1.383ZM37.22-13.895h1.886v-.692a.463.463,0,0,0-.524-.524h-.859q-.5,0-.5.524Zm-.608-3.144h3.521a1.339,1.339,0,0,1,1.006.388,1.4,1.4,0,0,1,.377,1.016V-1.111A4.007,4.007,0,0,1,41.254.534a1.674,1.674,0,0,1-.891.828,7.388,7.388,0,0,1-2.683.44q-1.53.042-1.844-.985a.935.935,0,0,1,.21-1.1,2.039,2.039,0,0,1,1.362-.3q.314,0,.692-.01l.44-.01q.566,0,.566-.524V-8.865H36.612A1.4,1.4,0,0,1,35.6-9.242a1.339,1.339,0,0,1-.388-1.006v-5.386A1.374,1.374,0,0,1,35.6-16.65,1.374,1.374,0,0,1,36.612-17.038ZM47.74-15.466h4.422a1.047,1.047,0,0,1,1.195,1.174,1.047,1.047,0,0,1-1.195,1.174h-1.8V-9.7h2.284a1.056,1.056,0,0,1,1.195,1.195,1.065,1.065,0,0,1-1.195,1.216H50.192a7.812,7.812,0,0,1-.147.88q.964.964,3.458,3.856a1.135,1.135,0,0,1,.3.754,2.29,2.29,0,0,1-.472.775q-.524.65-.933.671t-.891-.65q-.9-1.3-2.138-2.808A11.632,11.632,0,0,1,46.483.859Q45.372,1.8,44.534.9q-.943-1.027.419-2.221a10.6,10.6,0,0,0,2.682-5.973H45.079a1.065,1.065,0,0,1-1.195-1.216A1.056,1.056,0,0,1,45.079-9.7H47.8v-3.416h-.838q-.251.65-.8,1.781a1.292,1.292,0,0,1-.744.671,1.216,1.216,0,0,1-.933-.314,1.432,1.432,0,0,1-.65-.8,1.351,1.351,0,0,1,.272-.964,15.365,15.365,0,0,0,1.467-4.108q.272-1.32,1.509-1.069a1.079,1.079,0,0,1,.943,1.446Q47.95-16.137,47.74-15.466Zm9.116,2.054V-3.227q0,.524.5.524h2.054a.463.463,0,0,0,.524-.524V-13.412a.463.463,0,0,0-.524-.524H57.359Q56.856-13.936,56.856-13.412Zm-1.048-2.913h5.3a1.4,1.4,0,0,1,1.016.377,1.339,1.339,0,0,1,.388,1.006V-1.7a1.374,1.374,0,0,1-.388,1.016,1.374,1.374,0,0,1-1.016.388h-5.3A1.339,1.339,0,0,1,54.8-.681,1.4,1.4,0,0,1,54.425-1.7V-14.942a1.36,1.36,0,0,1,.377-1.006A1.36,1.36,0,0,1,55.809-16.326ZM75.215-9.661H80.58v-.545q0-.419-.4-.419H75.739a.463.463,0,0,0-.524.524ZM80.58-5.344H75.215v.587q0,.44.461.44h4.4a.445.445,0,0,0,.5-.5Zm0-2.641H75.215V-7H80.58Zm3.081-5.637H79.008q-.147.356-.5,1.132h3.185a1.374,1.374,0,0,1,1.016.388,1.374,1.374,0,0,1,.388,1.016v7.23a1.339,1.339,0,0,1-.388,1.006,1.4,1.4,0,0,1-1.016.377H74.23a1.4,1.4,0,0,1-1.016-.377,1.339,1.339,0,0,1-.388-1.006v-7.23a1.374,1.374,0,0,1,.388-1.016,1.374,1.374,0,0,1,1.016-.388h1.907l.189-1.132H72.344a.908.908,0,0,1-1.027-1.027A.917.917,0,0,1,72.344-15.7h1.718a6.552,6.552,0,0,0-.5-.964q-.5-.754.335-1.09a1.1,1.1,0,0,1,1.121.136,2.764,2.764,0,0,1,.954.975,1.017,1.017,0,0,1,.168.534.471.471,0,0,1-.21.409h3.688l-.272-.063q-.147-.021-.084-.168.21-.356.65-1.236a1.257,1.257,0,0,1,1.551-.8q1.446.293.587,1.656l-.22.293q-.157.21-.22.314H83.66a.917.917,0,0,1,1.027,1.048A.908.908,0,0,1,83.66-13.622ZM68.467-14.838q-.21-.189-1.111-.9-1.111-.754-.126-1.677a1.151,1.151,0,0,1,1.446-.21q.419.251,1.7,1.216a1.119,1.119,0,0,1,.4.775,1.311,1.311,0,0,1-.482.775A1.14,1.14,0,0,1,68.467-14.838Zm-1.216,3.9q-.587-.419-.754-.524-1.153-.713-.168-1.7a1.134,1.134,0,0,1,1.467-.21,17.1,17.1,0,0,1,1.886,1.236q.838.692-.021,1.572a1.128,1.128,0,0,1-1.8.084A7.222,7.222,0,0,0,67.251-10.94Zm-.587,2.473h2.494a1.155,1.155,0,0,1,.838.3,1.1,1.1,0,0,1,.314.828v4.254q1.236,1.97,4.694,2.138,3.9.168,8.53-.084.859-.063,1.132.262T84.687.4a1.645,1.645,0,0,1-.451.786,1.363,1.363,0,0,1-.849.262q-4.82.147-8.4.021a10.757,10.757,0,0,1-3.416-.65,5.586,5.586,0,0,1-2.326-1.76L67.545.566q-1.3,1.111-1.991-.356a1.356,1.356,0,0,1,.5-1.844q.733-.461,1.781-1.278V-5.6a.463.463,0,0,0-.524-.524h-.65A1.047,1.047,0,0,1,65.47-7.293,1.047,1.047,0,0,1,66.664-8.467Zm30.744-7.859h7.314a1.142,1.142,0,0,1,1.027.44,1.46,1.46,0,0,1,.084,1.216,21.379,21.379,0,0,1-.817,2.159.868.868,0,0,1-.451.367.935.935,0,0,1-.66.031,23.842,23.842,0,0,1,1.551,2.85,1.041,1.041,0,0,1,.031.828,1.424,1.424,0,0,1-.681.555,1.4,1.4,0,0,1-.954.2q-.388-.094-.618-.681a24.334,24.334,0,0,0-1.195-2.431,1.154,1.154,0,0,1-.136-1.027,1.107,1.107,0,0,1,.765-.713q.377-.9.629-1.656h-2.431v6.119a3.6,3.6,0,0,1-.2,1.352,1.4,1.4,0,0,1-.744.723,4.774,4.774,0,0,1-1.781.377q-.608.021-.168.356.147.1.4.314a.941.941,0,0,1-.063,1.572,1.494,1.494,0,0,1-.849.461,1.187,1.187,0,0,1-.828-.419,17.88,17.88,0,0,0-1.614-1.278q-1.153-.775-.147-1.656a1.169,1.169,0,0,1,1.4-.147q.189.1.566.356a8.083,8.083,0,0,0-.314-1.006q-.168-.377,0-.566a.918.918,0,0,1,.713-.168H98.1q.335-.021.335-.314v-6.078H96.277A14.909,14.909,0,0,1,95.1-12.6a1.314,1.314,0,0,1-.775.472,1.169,1.169,0,0,1-.817-.367,1.109,1.109,0,0,1-.042-1.844,11.7,11.7,0,0,0,1.656-2.7,1.15,1.15,0,0,1,1.53-.838.987.987,0,0,1,.8,1.467Zm-.943,6.706q-.566.88-.8,1.195a1.1,1.1,0,0,1-1.614.251,1.226,1.226,0,0,1-.629-.807,1.276,1.276,0,0,1,.44-.933,12.864,12.864,0,0,0,1.111-1.76,1.162,1.162,0,0,1,1.53-.713q1.216.314.713,1.446A13.714,13.714,0,0,1,96.465-9.619ZM91.394-2.871A9.586,9.586,0,0,1,89.487.545a1.155,1.155,0,0,1-1.572.1q-1.257-.88-.168-1.928A7.376,7.376,0,0,0,89.067-3.5a1.1,1.1,0,0,1,1.572-.838A1.061,1.061,0,0,1,91.394-2.871Zm.587-11.841v7.859a1.065,1.065,0,0,1-1.195,1.216,1.084,1.084,0,0,1-1.236-1.216v-4.9l-.566.566q-1.027.9-1.781-.126a1.482,1.482,0,0,1-.346-1,1.417,1.417,0,0,1,.6-.87,17.512,17.512,0,0,0,3.416-4.066,1.156,1.156,0,0,1,1.53-.587.948.948,0,0,1,.608,1.53Q92.693-15.76,91.98-14.712ZM98.854,1.467H95.48a4.225,4.225,0,0,1-2.7-.618,3.045,3.045,0,0,1-.692-2.316v-2.1A1.1,1.1,0,0,1,93.343-4.8,1.1,1.1,0,0,1,94.6-3.563v2.054q0,.461.2.587a2.119,2.119,0,0,0,.933.126h2.892a1.2,1.2,0,0,0,.566-.1q.5-2.012,1.844-1.467a1.086,1.086,0,0,1,.608.849,2.418,2.418,0,0,1,0,1.184,2.319,2.319,0,0,1-.922,1.415A3.6,3.6,0,0,1,98.854,1.467Zm6.119-4.191q.922,1.3,1.048,1.509a1.042,1.042,0,0,1-.545,1.53q-1.257.713-1.76-.419a19.149,19.149,0,0,0-1.991-2.787q-.985-1.09.231-1.781a1.22,1.22,0,0,1,1.509.168Q104.135-3.772,104.974-2.724Zm4.548-14.335h5.072a1.037,1.037,0,0,1,1.174,1.174,1.047,1.047,0,0,1-1.174,1.195h-1.257v3.73h1.048a1.019,1.019,0,0,1,1.153,1.153,1.028,1.028,0,0,1-1.153,1.174h-1.048v3.667q.231-.063.671-.189t.671-.189a.973.973,0,0,1,1.383.9,1.078,1.078,0,0,1-.88,1.341q-1.09.335-3.049.9l-2.546.733a1.118,1.118,0,0,1-.922-.042,1.4,1.4,0,0,1-.482-.838,1.379,1.379,0,0,1,.01-.975,1.114,1.114,0,0,1,.786-.492q.293-.063.922-.241t.985-.262V-8.634h-1.195a1.037,1.037,0,0,1-1.174-1.174,1.028,1.028,0,0,1,1.174-1.153h1.195v-3.73h-1.362a1.047,1.047,0,0,1-1.174-1.195A1.037,1.037,0,0,1,109.521-17.059Zm14.984,8.3h-5.533v.817a.463.463,0,0,0,.524.524H124q.5,0,.5-.524Zm0-3.248h-5.533v1.32h5.533Zm-.5-3.269H119.5q-.524,0-.524.5v.817h5.533v-.817A.445.445,0,0,0,124-15.278Zm-5.994-2.075h7.565a1.4,1.4,0,0,1,1.016.377,1.339,1.339,0,0,1,.388,1.006v9.221a1.374,1.374,0,0,1-.388,1.016,1.374,1.374,0,0,1-1.016.388h-1.216v4.212a1.431,1.431,0,0,0,.073.587q.073.126.346.126h.838a.377.377,0,0,0,.335-.231,2.831,2.831,0,0,1,.44-1.457.771.771,0,0,1,1.048-.241q.8.356.587,2.1a2.8,2.8,0,0,1-.692,1.572,2.048,2.048,0,0,1-1.425.44h-1.593a2.332,2.332,0,0,1-1.907-.618,3.874,3.874,0,0,1-.482-2.274V-5.344H120.65a14.8,14.8,0,0,1-.555,2.84,6.149,6.149,0,0,1-1.31,2.2,7.255,7.255,0,0,1-2.473,1.75q-1.53.5-2.117-.314a.9.9,0,0,1,.031-1.195,3.283,3.283,0,0,1,1.394-.88,4.288,4.288,0,0,0,1.834-1.75,7.5,7.5,0,0,0,.7-2.651h-.838a.7.7,0,0,1-.513-.2.7.7,0,0,1-.2-.513v-9.913a1.339,1.339,0,0,1,.388-1.006A1.4,1.4,0,0,1,118.009-17.352Zm29.7,18.673H137.352A1.047,1.047,0,0,1,136.158.147a1.047,1.047,0,0,1,1.195-1.174h3.94v-4.9H138.17A1.047,1.047,0,0,1,136.975-7.1a1.047,1.047,0,0,1,1.195-1.174h3.123v-2.305a1.121,1.121,0,0,1,1.278-1.257,1.121,1.121,0,0,1,1.278,1.257v2.305h3.018A1.047,1.047,0,0,1,148.061-7.1a1.047,1.047,0,0,1-1.195,1.174h-3.018v4.9h3.856A1.047,1.047,0,0,1,148.9.147,1.047,1.047,0,0,1,147.705,1.32Zm.021-14.083H137.583a23.613,23.613,0,0,1-2.494,4.212V.566a1.13,1.13,0,0,1-1.278,1.278,1.139,1.139,0,0,1-1.3-1.278V-5.616q-.587.524-.608.545-1.257.943-1.928-.356a1.415,1.415,0,0,1,.524-1.949,17.077,17.077,0,0,0,4.191-5.386h-3.4A1.093,1.093,0,0,1,130.059-14a1.084,1.084,0,0,1,1.236-1.216h4.527q.314-.838.566-1.7a1.223,1.223,0,0,1,1.656-.964q1.341.314.9,1.677-.189.566-.356.985h9.137A1.084,1.084,0,0,1,148.963-14,1.093,1.093,0,0,1,147.726-12.763Zm8.613,6.853h3.018q.524,0,.524-.5v-2.41q0-.5-.524-.5h-3.018q-.524,0-.524.5v2.41Q155.816-5.91,156.339-5.91Zm-1.572-5.847h6.2a1.4,1.4,0,0,1,1.016.377,1.339,1.339,0,0,1,.388,1.006v5.533a1.339,1.339,0,0,1-.388,1.006,1.4,1.4,0,0,1-1.016.377h-6.2a1.36,1.36,0,0,1-1.006-.377,1.36,1.36,0,0,1-.377-1.006v-5.533a1.36,1.36,0,0,1,.377-1.006A1.36,1.36,0,0,1,154.768-11.757Zm-2.075-4.988h16.556a1.148,1.148,0,0,1,1.3,1.3,1.139,1.139,0,0,1-1.3,1.278h-1.132V-1.383a4.129,4.129,0,0,1-.314,1.8,1.991,1.991,0,0,1-1.069.943,9.835,9.835,0,0,1-3.185.44q-1.593.042-1.991-1.027-.335-.859.157-1.247a2.328,2.328,0,0,1,1.54-.346h1.509a.819.819,0,0,0,.534-.136.6.6,0,0,0,.157-.472V-14.167H152.693a1.139,1.139,0,0,1-1.3-1.278A1.148,1.148,0,0,1,152.693-16.745Zm30.744,5.093V-16.87a1.1,1.1,0,0,1,1.257-1.236,1.093,1.093,0,0,1,1.236,1.236v1.823a26.993,26.993,0,0,0,3-1.341,1.179,1.179,0,0,1,1.53.356q.943,1.069-.314,1.614-1.844.754-4.212,1.467v1.257a1.054,1.054,0,0,0,.157.713,1.315,1.315,0,0,0,.786.147H189.2a.7.7,0,0,0,.461-.126,2.564,2.564,0,0,1,.608-1.352.967.967,0,0,1,1.153-.157,1,1,0,0,1,.608.8,3.448,3.448,0,0,1,.021,1.257,2.42,2.42,0,0,1-.87,1.457,3.055,3.055,0,0,1-1.729.409h-2.934a3.435,3.435,0,0,1-2.462-.65A3.614,3.614,0,0,1,183.437-11.652Zm-4.191,6.287h-3.165v1.257h3.165Zm-3.165-1.886h3.165V-7.88a.426.426,0,0,0-.482-.482h-2.18a.445.445,0,0,0-.5.5Zm-.943-3.227h5.218a1.339,1.339,0,0,1,1.006.388,1.4,1.4,0,0,1,.377,1.016V-.733q0,1.656-.9,2.117a4.311,4.311,0,0,1-1.76.4,1.385,1.385,0,0,1-1.53-.88q-.461-1.362,1.216-1.362h.168a.364.364,0,0,0,.251-.063.364.364,0,0,0,.063-.251V-2.2h-3.165V.692a1.019,1.019,0,0,1-1.153,1.153q-1.195,0-1.195-1.153V-9.074a1.374,1.374,0,0,1,.388-1.016A1.374,1.374,0,0,1,175.138-10.479Zm5.428-1.488q-.754.042-3.133.2t-3.636.22a1.021,1.021,0,0,1-1.195-1.09,1.1,1.1,0,0,1,.314-1.037,2.1,2.1,0,0,1,1.236-.283,31.055,31.055,0,0,0,1.174-3.123A1.221,1.221,0,0,1,176.919-18q1.425.272.838,1.7-.189.44-.534,1.195t-.472,1.048l2.808-.126q-.063-.1-.189-.335t-.189-.335q-.629-1.111.587-1.551a1.068,1.068,0,0,1,1.446.461,21.5,21.5,0,0,1,1.718,3.227q.314.943-.817,1.4-1.195.482-1.53-.608,0-.021-.01-.021T180.566-11.966Zm2.871,10.583V-6.895a1.093,1.093,0,0,1,1.257-1.216,1.074,1.074,0,0,1,1.216,1.216v1.677q2.242-.964,3.123-1.467a1.15,1.15,0,0,1,1.614.272q.985,1.069-.293,1.677a35.174,35.174,0,0,1-4.443,1.656v1.7q0,.566.178.713a1.43,1.43,0,0,0,.807.147h2.431a.687.687,0,0,0,.608-.272,3.15,3.15,0,0,1,.566-1.477.853.853,0,0,1,1.111-.241,1.054,1.054,0,0,1,.608.8,3.163,3.163,0,0,1,.042,1.257,2.911,2.911,0,0,1-.88,1.7,2.9,2.9,0,0,1-1.823.482h-3.018a3.478,3.478,0,0,1-2.473-.65A3.57,3.57,0,0,1,183.437-1.383Zm16.745-1.551h7.4v-.5a.3.3,0,0,0-.335-.335h-6.56a.445.445,0,0,0-.5.5Zm7.4,1.7h-7.4v.482q0,.377.356.377h6.539q.5,0,.5-.524Zm-8.488-4.212h9.682a1.4,1.4,0,0,1,1.016.377,1.339,1.339,0,0,1,.388,1.006V-.1A1.339,1.339,0,0,1,209.79.9a1.4,1.4,0,0,1-1.016.377h-9.682A1.4,1.4,0,0,1,198.075.9,1.339,1.339,0,0,1,197.688-.1V-4.066a1.339,1.339,0,0,1,.388-1.006A1.4,1.4,0,0,1,199.092-5.449Zm-2.075-6.518H210.7a28.638,28.638,0,0,1-3.1-1.509v.419q0,.314-.293.314h-6.392a.729.729,0,0,1-.555-.21.759.759,0,0,1-.2-.545v-.063A32.57,32.57,0,0,1,197.017-11.966ZM208.1-9.284q-.126.231-.409.786t-.43.786h1.3q.524,0,.524-.5v-2.2h-2.305l.9.231a.665.665,0,0,1,.461.346A.659.659,0,0,1,208.1-9.284ZM200.1-7.712a7.886,7.886,0,0,0-.524-1.76.444.444,0,0,1,0-.377.463.463,0,0,1,.314-.231L201-10.416H198.61v2.2q0,.5.524.5Zm1.006-2.7a12.211,12.211,0,0,1,.754,1.823.486.486,0,0,1-.4.629l-.859.251h2.159v-2.7ZM205.945-9.2q.335-.943.4-1.216h-1.551v2.7h1.949l-.713-.189a.439.439,0,0,1-.335-.671Zm-4.464-5.2h4.108q.482,0,.042-.293a15.936,15.936,0,0,1-1.886-1.509A15.565,15.565,0,0,1,201.481-14.4Zm8.425,8.257H197.9a1.36,1.36,0,0,1-1.006-.377,1.36,1.36,0,0,1-.377-1.006v-4.233q-1.341.671-1.949-.293-.775-1.195.775-1.7a19.629,19.629,0,0,0,6.685-3.982,1.643,1.643,0,0,1,1.215-.44h.9a1.811,1.811,0,0,1,1.236.44,20.178,20.178,0,0,0,6.937,3.835q1.614.482.733,1.76a1.089,1.089,0,0,1-.765.566,1.887,1.887,0,0,1-1-.168v4.212a1.36,1.36,0,0,1-.377,1.006A1.36,1.36,0,0,1,209.906-6.14Zm12.679-1.383h1.006a.37.37,0,0,0,.419-.419v-.419a.463.463,0,0,0-.524-.524h-.9a.463.463,0,0,0-.524.524v.314A.463.463,0,0,0,222.585-7.524Zm-4.045-8.655h7.649q-.021-.126-.042-.4t-.021-.4q-.063-1.195,1.153-1.195a1.093,1.093,0,0,1,1.236,1.153q0,.293.042.838H230.8a2.977,2.977,0,0,1-.325-.168,2.977,2.977,0,0,0-.325-.168q-1.069-.44-.272-1.341a.946.946,0,0,1,1.111-.293,9.888,9.888,0,0,1,1.614.754.686.686,0,0,1,.325.545.853.853,0,0,1-.262.671h.943a.889.889,0,0,1,1.006,1.006.889.889,0,0,1-1.006,1.006H228.83a23.051,23.051,0,0,0,.88,3.353,11.093,11.093,0,0,0,.88-1.718,1.176,1.176,0,0,1,1.53-.838q1.195.272.733,1.53a17.359,17.359,0,0,1-1.991,3.458q.9,1.362,1.781,1.362.293,0,.44-.419a2.874,2.874,0,0,1,.482-1.362q.356-.461.985-.1a1.143,1.143,0,0,1,.482.891,2.676,2.676,0,0,1-.021,1.121,3.123,3.123,0,0,1-.859,1.708,2.492,2.492,0,0,1-1.635.472,4.145,4.145,0,0,1-3.227-1.844q-.692.65-1.027.922a1.287,1.287,0,0,1-.912.293,1.237,1.237,0,0,1-.828-.44q-.147-.168-.461-.482v.251a.111.111,0,0,1-.126.126H224.68a12.231,12.231,0,0,1,2.326,1.635.967.967,0,0,1,.356.733,1.292,1.292,0,0,1-.5.713,1.448,1.448,0,0,1-.817.43,1.105,1.105,0,0,1-.754-.409,11.011,11.011,0,0,0-1.257-1.027,1.2,1.2,0,0,1-.6-.87,1.117,1.117,0,0,1,.492-.912l.335-.293h-2.829a1.4,1.4,0,0,1-1.016-.377,1.339,1.339,0,0,1-.388-1.006V-9.116a1.374,1.374,0,0,1,.388-1.016,1.374,1.374,0,0,1,1.016-.388h3.227a1.374,1.374,0,0,1,1.016.388,1.374,1.374,0,0,1,.388,1.016V-7a13.451,13.451,0,0,0,1.991-1.656,21.6,21.6,0,0,1-1.614-5.512h-6.455a.463.463,0,0,0-.524.524v.733a15.21,15.21,0,0,1-1.635,7.649q-.8,1.153-1.677.377a1.357,1.357,0,0,1-.126-1.991,13.461,13.461,0,0,0,1.132-6.078V-14.8a1.36,1.36,0,0,1,.377-1.006A1.36,1.36,0,0,1,218.54-16.179Zm2.242,3h4.611a.722.722,0,0,1,.817.817.722.722,0,0,1-.817.817h-4.611a.722.722,0,0,1-.817-.817A.722.722,0,0,1,220.782-13.182ZM219.231-.692A6.54,6.54,0,0,1,218.226.733a1.182,1.182,0,0,1-1.572.1,1.079,1.079,0,0,1-.189-1.886,9.121,9.121,0,0,0,1.09-1.823,1.121,1.121,0,0,1,1.614-.8A1.051,1.051,0,0,1,219.9-2.2,10.15,10.15,0,0,1,219.231-.692Zm8.4,2.284h-3.4a4.276,4.276,0,0,1-2.714-.608,3,3,0,0,1-.681-2.284v-1.53A1.111,1.111,0,0,1,222.1-4.087a1.111,1.111,0,0,1,1.257,1.257V-1.32q0,.419.189.524a2.5,2.5,0,0,0,.943.1h2.892a1.635,1.635,0,0,0,.5-.063q.545-1.823,1.907-1.278.859.356.587,1.928a2.206,2.206,0,0,1-.912,1.331A3.66,3.66,0,0,1,227.635,1.593ZM233.9-2.221a9.665,9.665,0,0,1,.88,1.278,1.03,1.03,0,0,1-.566,1.53,1.594,1.594,0,0,1-1.048.22,1.082,1.082,0,0,1-.713-.7A15.664,15.664,0,0,0,230.8-2.221a1.238,1.238,0,0,1-.44-1A1.089,1.089,0,0,1,231.051-4a1.145,1.145,0,0,1,1.446.189A14.71,14.71,0,0,1,233.9-2.221Zm4.946-4.443h2.41V-7.5a1.1,1.1,0,0,1,1.236-1.257A1.111,1.111,0,0,1,243.751-7.5v.838h2.326a1,1,0,0,1,1.132,1.132A1,1,0,0,1,246.077-4.4h-2.326v2.473l2.892-.356q1.236-.168,1.278,1.132A1.089,1.089,0,0,1,246.832.1q-3.5.482-8.509,1.132a1,1,0,0,1-.88-.189,1.67,1.67,0,0,1-.377-.922q-.189-1.3.964-1.4.566-.042,1.792-.189t1.436-.168V-4.4h-2.41a1,1,0,0,1-1.132-1.132A1,1,0,0,1,238.847-6.664Zm-.629-10.164h8.53a.982.982,0,0,1,1.111,1.111q0,1.153-1.111,1.153H242.7q-.419,1.111-1.278,3.123,1.132-.021,3.311-.1-.063-.084-.231-.335t-.272-.377q-.671-.922.377-1.467a1,1,0,0,1,1.383.272,22.54,22.54,0,0,1,2.1,3.227q.377.838-.545,1.341-1.09.608-1.551-.44,0-.021-.01-.021t-.01-.021q-1.572.084-7.775.377a.916.916,0,0,1-.786-.251,1.583,1.583,0,0,1-.262-.88q-.063-1.216,1.111-1.236l.65-.021q.587-1.677.964-3.185h-1.656q-1.111,0-1.111-1.153A.982.982,0,0,1,238.219-16.828ZM248.655-4.694v-9.682a1.065,1.065,0,0,1,1.216-1.195,1.065,1.065,0,0,1,1.215,1.195v9.682A1.065,1.065,0,0,1,249.871-3.5,1.065,1.065,0,0,1,248.655-4.694Zm4.82,3.521V-16.326a1.111,1.111,0,0,1,1.257-1.257,1.1,1.1,0,0,1,1.236,1.257V-1.174a4.314,4.314,0,0,1-.262,1.7,1.652,1.652,0,0,1-.891.859,7.281,7.281,0,0,1-2.473.461q-1.551.042-1.886-1.048a1.007,1.007,0,0,1,.231-1.163,2.08,2.08,0,0,1,1.4-.325h.88a.689.689,0,0,0,.4-.115A.489.489,0,0,0,253.475-1.174Zm15.613-9.012v-6.727a1.1,1.1,0,0,1,1.257-1.236,1.1,1.1,0,0,1,1.257,1.236v2.494q1.069-.377,2.955-1.216a1.3,1.3,0,0,1,1.677.356q1.132,1.216-.356,1.8a39.329,39.329,0,0,1-4.275,1.362v1.928a1.248,1.248,0,0,0,.157.775,1.093,1.093,0,0,0,.744.168h2.263a.653.653,0,0,0,.566-.231,3.135,3.135,0,0,1,.576-1.519.9.9,0,0,1,1.163-.22,1.079,1.079,0,0,1,.608.838,3.493,3.493,0,0,1,.042,1.32,2.877,2.877,0,0,1-.891,1.7,2.906,2.906,0,0,1-1.813.482h-2.871a3.254,3.254,0,0,1-2.441-.692A4.05,4.05,0,0,1,269.088-10.185Zm5.26,7.042H262.319A1.074,1.074,0,0,1,261.1-4.359a1.074,1.074,0,0,1,1.216-1.216h12.029a1.074,1.074,0,0,1,1.216,1.216A1.074,1.074,0,0,1,274.348-3.144ZM263.074-9.158v-7.754a1.112,1.112,0,0,1,1.278-1.236,1.093,1.093,0,0,1,1.236,1.236v1.97H267.1a1.01,1.01,0,0,1,1.132,1.153,1,1,0,0,1-1.132,1.132h-1.509V-9.41l1.593-.168q1.215-.126,1.257,1.111a1.078,1.078,0,0,1-1.09,1.236q-1.09.126-3.751.451t-3.9.472a.917.917,0,0,1-.87-.22,1.773,1.773,0,0,1-.325-1q-.1-1.216.985-1.3h.042v-6.015q0-1.153,1.195-1.153a1.019,1.019,0,0,1,1.153,1.153v5.805Zm13.475,10.6h-16.6A1.13,1.13,0,0,1,258.673.168a1.13,1.13,0,0,1,1.278-1.278h16.6A1.13,1.13,0,0,1,277.827.168,1.13,1.13,0,0,1,276.549,1.446Zm5.344-18.966h4.82a.852.852,0,0,1,.964.964.861.861,0,0,1-.964.985h-4.82a.861.861,0,0,1-.964-.985A.852.852,0,0,1,281.893-17.52Zm3.458,15.739V-3.227a.445.445,0,0,0-.5-.5h-1.4q-.524,0-.524.5v1.446a.463.463,0,0,0,.524.524h1.4Q285.351-1.257,285.351-1.781Zm-3.206-3.961h4.024a1.4,1.4,0,0,1,1.016.377,1.339,1.339,0,0,1,.388,1.006V-.671a1.375,1.375,0,0,1-.388,1.016,1.374,1.374,0,0,1-1.016.388h-4.024a1.374,1.374,0,0,1-1.016-.388,1.374,1.374,0,0,1-.388-1.016V-4.359a1.339,1.339,0,0,1,.388-1.006A1.4,1.4,0,0,1,282.144-5.742Zm4.548-1.069h-4.946a.843.843,0,0,1-.943-.964.834.834,0,0,1,.943-.943h4.946a.834.834,0,0,1,.943.943A.843.843,0,0,1,286.692-6.811ZM280.8-14.628h6.287a1.4,1.4,0,0,1,1.016.377,1.339,1.339,0,0,1,.388,1.006v.566a17.208,17.208,0,0,0,1.677-4.3A1.17,1.17,0,0,1,291.7-18a1.1,1.1,0,0,1,.964,1.509,12.715,12.715,0,0,1-.377,1.278h5.742a1.028,1.028,0,0,1,1.174,1.153,1.047,1.047,0,0,1-1.174,1.195h-2.787v4.275h3.185a1.065,1.065,0,0,1,1.195,1.216,1.065,1.065,0,0,1-1.195,1.216h-3.185V.587a1.111,1.111,0,0,1-1.257,1.257A1.121,1.121,0,0,1,292.707.587V-6.161h-3.227a1.074,1.074,0,0,1-1.216-1.216,1.074,1.074,0,0,1,1.216-1.216h3.227v-4.275h-1.3a17.483,17.483,0,0,1-1.132,2.2,1.182,1.182,0,0,1-.817.555,1.349,1.349,0,0,1-1.006-.22,5.24,5.24,0,0,0-.817-.482v.629q0,.482-.5.482h-5.365a.861.861,0,0,1-.964-.985.852.852,0,0,1,.964-.964h5.616q.251,0,.251.231v.063a9.287,9.287,0,0,0,.817-1.257H280.8a.889.889,0,0,1-1.006-1.006A.889.889,0,0,1,280.8-14.628Zm27.035,7.817h-3.4V-3.1q0,.5.524.5h2.368a.445.445,0,0,0,.5-.5Zm-3.4-2.2h3.4v-2.955q0-.524-.5-.524h-2.368a.463.463,0,0,0-.524.524Zm10.122-5.868h4.59a1.1,1.1,0,0,1,1.027.608,4.677,4.677,0,0,1,.293,2.18q-.189,6.518-.461,9.137a7.543,7.543,0,0,1-.859,3.374,2.623,2.623,0,0,1-1.425,1.069,10.838,10.838,0,0,1-2.515.21,1.888,1.888,0,0,1-1.121-.367A1.453,1.453,0,0,1,313.538.4a.161.161,0,0,0-.021-.063q-.272-.545-.031-.828a1.21,1.21,0,0,1,1-.241q.734.021,1.656.021a1.248,1.248,0,0,0,.922-.356,6.494,6.494,0,0,0,.692-2.871q.251-2.368.419-7.628a1.541,1.541,0,0,0-.1-.786.436.436,0,0,0-.4-.2h-4.024q-.293.713-1.111,2.2a1.23,1.23,0,0,1-.859.6,1.442,1.442,0,0,1-1.09-.283q-.084-.063-.23-.168t-.231-.168v8.634a1.374,1.374,0,0,1-.388,1.016,1.374,1.374,0,0,1-1.016.388h-5.176a1.339,1.339,0,0,1-1.006-.388,1.4,1.4,0,0,1-.377-1.016V-13.329a1.36,1.36,0,0,1,.377-1.006,1.36,1.36,0,0,1,1.006-.377h1.027q.231-.859.44-2.1a1.483,1.483,0,0,1,.451-.985,1.419,1.419,0,0,1,1.058-.189q1.425.21.9,1.718-.147.44-.587,1.551h1.886a1.4,1.4,0,0,1,1.016.377,1.339,1.339,0,0,1,.388,1.006v2.075a19.783,19.783,0,0,0,2.557-5.679,1.147,1.147,0,0,1,1.509-.943,1.049,1.049,0,0,1,.88,1.467Q314.9-15.8,314.565-14.879Zm-.231,10.017q-.859-1.488-1.76-2.892a.976.976,0,0,1,.419-1.551,1.04,1.04,0,0,1,1.53.293q1.006,1.425,1.991,3.039.524.9-.5,1.509Q314.879-3.73,314.334-4.862Zm10.395-11.883h15.823a1.158,1.158,0,0,1,1.3,1.32,1.148,1.148,0,0,1-1.3,1.3h-5.3a19.047,19.047,0,0,1-1.236,1.97v2.242l.838-.713a1.192,1.192,0,0,1,.744-.293,1.047,1.047,0,0,1,.723.21,59.782,59.782,0,0,1,5.491,4.422,1.227,1.227,0,0,1,.419.933,1.717,1.717,0,0,1-.629.891,1.953,1.953,0,0,1-.964.587,1.285,1.285,0,0,1-.922-.482,60.564,60.564,0,0,0-5.7-4.925V.461a1.383,1.383,0,0,1-2.766,0V-8.655a25.54,25.54,0,0,1-5.533,4.59,1.373,1.373,0,0,1-1.991-.335q-.943-1.278.608-2.117A21.017,21.017,0,0,0,328.617-9.9a22.414,22.414,0,0,0,3.28-4.223h-7.167a1.148,1.148,0,0,1-1.3-1.3A1.158,1.158,0,0,1,324.729-16.745Zm35.732,2.829H348.18q-.5,0-.5.524v.88a1.139,1.139,0,0,1-1.3,1.278,1.13,1.13,0,0,1-1.278-1.278v-2.368a1.339,1.339,0,0,1,.388-1.006,1.4,1.4,0,0,1,1.016-.377h6.182v-.587a1.176,1.176,0,0,1,1.341-1.32,1.167,1.167,0,0,1,1.32,1.32v.587h6.434a1.36,1.36,0,0,1,1.006.377,1.36,1.36,0,0,1,.377,1.006v2.305a1.186,1.186,0,0,1-1.341,1.341,1.2,1.2,0,0,1-1.362-1.341Zm-3.374,6.1h-4.946q-.147.314-.43.849T351.2-6q-.231.43-.4.807,1.572.44,4.066,1.362A8.818,8.818,0,0,0,357.087-7.817Zm-3.772-2.389h9.032a1.065,1.065,0,0,1,1.216,1.195,1.065,1.065,0,0,1-1.216,1.195h-2.326A13.071,13.071,0,0,1,357.38-2.85q2.536,1.069,4.087,1.886.692.44.681.849a1.74,1.74,0,0,1-.6,1.016,2.021,2.021,0,0,1-.859.576,1.241,1.241,0,0,1-.922-.241,46.044,46.044,0,0,0-4.506-2.242,19.2,19.2,0,0,1-7.356,2.662,1.643,1.643,0,0,1-1.886-.671Q345.12-.44,347.3-.733a18.657,18.657,0,0,0,5.134-1.446q-.147-.042-1.184-.43t-1.561-.555a.665.665,0,0,1-.461.451,1.317,1.317,0,0,1-.754.01q-1.8-.482-1.069-1.739.482-.838,1.823-3.374h-3.374a1.065,1.065,0,0,1-1.216-1.195,1.065,1.065,0,0,1,1.216-1.195h4.59q.713-1.467,1.027-2.159a1.3,1.3,0,0,1,1.593-.8q1.488.314.88,1.7Zm24.666,1.551a4.932,4.932,0,0,1-.954,3,5.5,5.5,0,0,1-2.4,1.886.823.823,0,0,1-1.195-.5.883.883,0,0,1,.052-.807,1.36,1.36,0,0,1,.7-.555,2.824,2.824,0,0,0,1.635-2.138.843.843,0,0,1-.231.021,2.128,2.128,0,0,1-1.436-.513,1.743,1.743,0,0,1-.6-1.394,1.768,1.768,0,0,1,.608-1.394,2.174,2.174,0,0,1,1.488-.534,2.051,2.051,0,0,1,1.729.775A3.463,3.463,0,0,1,377.981-8.655Z" transform="translate(112.97 458.96)" fill="#231815"/>
        <path id="Path_25" data-name="Path 25" d="M15.613-5.491H11.4q-.524,0-.524.5v.65a.463.463,0,0,0,.524.524h4.212a.463.463,0,0,0,.524-.524v-.65Q16.137-5.491,15.613-5.491Zm-5.7-1.781h7.314a1.4,1.4,0,0,1,1.016.377,1.339,1.339,0,0,1,.388,1.006v2.431a1.374,1.374,0,0,1-.388,1.016,1.374,1.374,0,0,1-1.016.388H9.913a1.339,1.339,0,0,1-1.006-.388A1.4,1.4,0,0,1,8.53-3.458V-5.889a1.36,1.36,0,0,1,.377-1.006A1.36,1.36,0,0,1,9.913-7.272Zm7.5-.817H9.724a.759.759,0,0,1-.859-.859.759.759,0,0,1,.859-.859h7.691a.759.759,0,0,1,.859.859A.759.759,0,0,1,17.415-8.089ZM9.724-12.365h7.691a.759.759,0,0,1,.859.859.759.759,0,0,1-.859.859H9.724a.759.759,0,0,1-.859-.859A.759.759,0,0,1,9.724-12.365Zm-1.8-2.641H19.406a.8.8,0,0,1,.9.9.8.8,0,0,1-.9.9H7.922a.8.8,0,0,1-.9-.9A.8.8,0,0,1,7.922-15.005Zm2.033-2.557h7.293a.759.759,0,0,1,.859.859.759.759,0,0,1-.859.859H9.955A.759.759,0,0,1,9.1-16.7.759.759,0,0,1,9.955-17.562ZM4.38-17.625a11.694,11.694,0,0,1,1.844,1.341A.979.979,0,0,1,6.2-14.67a1.11,1.11,0,0,1-1.76.063,11.634,11.634,0,0,0-1.3-1.09q-1.195-.8-.21-1.718A1.151,1.151,0,0,1,4.38-17.625Zm-.859,4.212q1.069.65,1.928,1.278a1.006,1.006,0,0,1,0,1.635q-.9.943-1.739.126a9.488,9.488,0,0,0-1.383-1.048q-1.236-.754-.251-1.739A1.151,1.151,0,0,1,3.521-13.412ZM2.284-8.467H4.778a1.155,1.155,0,0,1,.838.3,1.1,1.1,0,0,1,.314.828v4.254q1.216,1.97,4.694,2.138,3.9.168,8.53-.084.859-.063,1.132.262T20.307.4a1.645,1.645,0,0,1-.451.786,1.363,1.363,0,0,1-.849.262q-4.82.147-8.4.021A10.757,10.757,0,0,1,7.188.817,5.586,5.586,0,0,1,4.862-.943Q3.814.042,3.165.566,1.865,1.677,1.174.21a1.356,1.356,0,0,1,.5-1.844Q2.41-2.1,3.458-2.913V-5.6a.463.463,0,0,0-.524-.524h-.65A1.047,1.047,0,0,1,1.09-7.293,1.047,1.047,0,0,1,2.284-8.467Zm24.96-6.1h9.745v-.629q0-.482-.461-.482h-8.76a.463.463,0,0,0-.524.524Zm.5,2.787h8.739q.5,0,.5-.524v-.587H27.244v.608A.445.445,0,0,0,27.747-11.778Zm-1.572-5.679H38.184a1.339,1.339,0,0,1,1.006.388,1.4,1.4,0,0,1,.377,1.016V-11.4a1.4,1.4,0,0,1-.377,1.016A1.339,1.339,0,0,1,38.184-10H26.175a1.339,1.339,0,0,1-1.006-.388,1.4,1.4,0,0,1-.377-1.016v-4.652a1.4,1.4,0,0,1,.377-1.016A1.339,1.339,0,0,1,26.175-17.457Zm-2.221,8.4H40.468A.991.991,0,0,1,41.6-7.943a1,1,0,0,1-1.132,1.132H33.7V-5.2h5.449a.963.963,0,0,1,1.09,1.09q0,1.132-1.09,1.132H33.7V-.9q.838.063,1.7.063,3.332,0,5.176-.021.88-.021,1.121.293T41.663.587a1.378,1.378,0,0,1-.524.754,1.781,1.781,0,0,1-.943.21H35.271A16.727,16.727,0,0,1,30.178.912a6.346,6.346,0,0,1-3.227-2.421,9.908,9.908,0,0,1-1.991,2.62,1.553,1.553,0,0,1-.9.43,1.351,1.351,0,0,1-.88-.409A1.338,1.338,0,0,1,22.655.084,1.688,1.688,0,0,1,23.388-.9a9.411,9.411,0,0,0,2.347-4.108,1.556,1.556,0,0,1,.513-.943,1.244,1.244,0,0,1,1-.231A1.076,1.076,0,0,1,28.25-4.673l-.189.629a4.729,4.729,0,0,0,3.081,2.682V-6.811H23.954a.991.991,0,0,1-1.111-1.132A.982.982,0,0,1,23.954-9.053Zm36.612-7.9a19.7,19.7,0,0,1,1.823,1.886,1.011,1.011,0,0,1-.335,1.593q-1.048.775-1.718-.21-.5-.65-1.383-1.614-.964-.964.126-1.718A1.132,1.132,0,0,1,60.566-16.954ZM57.4-12.113h4.59A1.074,1.074,0,0,1,63.206-10.9a1.074,1.074,0,0,1-1.216,1.216H57.653q.231,1.718.629,3.626a19.365,19.365,0,0,0,1.446-1.949,1.154,1.154,0,0,1,1.635-.524q1.153.482.5,1.635a21.114,21.114,0,0,1-2.871,3.584Q59.937-.671,60.88-.671q.314,0,.5-.775A3.781,3.781,0,0,1,61.9-3.175q.409-.618,1.121-.115a1.44,1.44,0,0,1,.492,1.037A3.286,3.286,0,0,1,63.5-.985a4.618,4.618,0,0,1-.985,2.295,2.557,2.557,0,0,1-1.865.618q-2.18,0-3.667-3.4A23.951,23.951,0,0,1,54.153.566,1.311,1.311,0,0,1,52.33.251a1.321,1.321,0,0,1-.388-1.079q.115-.43.87-.807a23.973,23.973,0,0,0,3.311-2.284,37.612,37.612,0,0,1-1.09-5.763H50.716V-7.23q.335-.063,1.027-.2t1.048-.2q1.216-.231,1.32,1.048A1.1,1.1,0,0,1,53.126-5.3l-2.41.5v3.667A4.019,4.019,0,0,1,50.454.5a1.754,1.754,0,0,1-.891.859,6.9,6.9,0,0,1-2.305.461q-1.53.042-1.865-1.006-.272-.8.168-1.163a2.106,2.106,0,0,1,1.4-.346q.189,0,.419-.01t.272-.01q.524,0,.524-.44V-4.275q-.5.1-1.394.283T45.54-3.73a1.129,1.129,0,0,1-1.488-1.006,1.506,1.506,0,0,1,.031-1.058,1.091,1.091,0,0,1,.849-.472q1.341-.21,3.248-.545V-9.682H45.351A1.074,1.074,0,0,1,44.136-10.9a1.074,1.074,0,0,1,1.216-1.216H48.18v-2.431q-.671.1-2.368.335a1.138,1.138,0,0,1-1.362-.838q-.377-1.174.964-1.362a54.3,54.3,0,0,0,6.224-1.362,1.284,1.284,0,0,1,1.509.587q1.048,1.341-.545,1.76-1.216.293-1.886.419v2.892h4.066q-.147-2.012-.21-4.548a1.136,1.136,0,0,1,1.3-1.32,1.176,1.176,0,0,1,1.32,1.341Q57.192-14.565,57.4-12.113Zm16.116-1.781h1.739v-.692q0-.524-.5-.524H73.517Zm1.739,1.844H73.517v1.257h1.236q.5,0,.5-.524Zm-4.045-4.988h4.569a1.339,1.339,0,0,1,1.006.388,1.4,1.4,0,0,1,.377,1.016v5.386a1.36,1.36,0,0,1-.377,1.006,1.36,1.36,0,0,1-1.006.377H73.517V.65A1.019,1.019,0,0,1,72.365,1.8,1.028,1.028,0,0,1,71.191.65V-17q-.65,1.886-1.467,3.709V.65a1.205,1.205,0,0,1-2.41,0V-8.886Q66.057-7,65.239-8.844a1.911,1.911,0,0,1-.21-.975,1.7,1.7,0,0,1,.419-.891,23.5,23.5,0,0,0,3.144-6.2,1.131,1.131,0,0,1,.891-.733,2.117,2.117,0,0,1,1.289.021.819.819,0,0,1,.367.231A.305.305,0,0,1,71.212-17.038ZM82.026-12.05H80.14v.733q0,.524.5.524h1.383ZM80.14-13.895h1.886v-.692a.463.463,0,0,0-.524-.524h-.859q-.5,0-.5.524Zm-.608-3.144h3.521a1.339,1.339,0,0,1,1.006.388,1.4,1.4,0,0,1,.377,1.016V-1.111A4.007,4.007,0,0,1,84.174.534a1.674,1.674,0,0,1-.891.828A7.388,7.388,0,0,1,80.6,1.8q-1.53.042-1.844-.985a.935.935,0,0,1,.21-1.1,2.039,2.039,0,0,1,1.362-.3q.314,0,.692-.01l.44-.01q.566,0,.566-.524V-8.865H79.532a1.4,1.4,0,0,1-1.016-.377,1.339,1.339,0,0,1-.388-1.006v-5.386a1.374,1.374,0,0,1,.388-1.016A1.374,1.374,0,0,1,79.532-17.038ZM89.4-4.254a21.889,21.889,0,0,1-.754,3.542,1.038,1.038,0,0,1-.513.639,1.132,1.132,0,0,1-.828-.115,1.177,1.177,0,0,1-.66-.555,1.187,1.187,0,0,1,.073-.87,14.83,14.83,0,0,0,.608-2.829q.126-1.174,1.216-.985A.924.924,0,0,1,89.4-4.254ZM93.07-2.263q-.168-.587-.671-2.1-.335-.88.608-1.174a.831.831,0,0,1,1.153.524q.566,1.467.817,2.305a.83.83,0,0,1-.629,1.069Q93.3-1.257,93.07-2.263ZM92.022-6.895V.8a1.1,1.1,0,0,1-2.2,0V-6.748L87.831-6.6a1,1,0,0,1-1.174-1.027q-.1-1.153,1.027-1.174l.377-.021q.754-.964,1.027-1.362a20.161,20.161,0,0,0-1.865-2.263,1.152,1.152,0,0,1-.251-.838,1.8,1.8,0,0,1,.335-.88.855.855,0,0,1,.44-.346.476.476,0,0,1,.482.073l.021.021h.021a23.993,23.993,0,0,0,1.153-2.662,1,1,0,0,1,1.467-.671q1.09.419.524,1.551-1.278,2.368-1.8,3.165.713.817.733.859.985-1.635,1.425-2.515a.963.963,0,0,1,1.446-.482.916.916,0,0,1,.44,1.509q-1.383,2.159-3.332,4.757l2.033-.084-.314-.692a.789.789,0,0,1,.461-1.236.845.845,0,0,1,1.216.44A18.231,18.231,0,0,1,95-7.356a.848.848,0,0,1-.042.608,1.188,1.188,0,0,1-.524.4q-1.048.461-1.3-.587a.06.06,0,0,1-.021-.042Zm6.5,5.365h3.647q.524,0,.524-.5V-4.359q0-.5-.524-.5H98.519a.445.445,0,0,0-.5.5v2.326A.445.445,0,0,0,98.519-1.53Zm-1.446-5.6h6.643a1.374,1.374,0,0,1,1.016.388,1.374,1.374,0,0,1,.388,1.016v5.03a1.374,1.374,0,0,1-.388,1.016,1.374,1.374,0,0,1-1.016.388H97.073A1.374,1.374,0,0,1,96.057.325a1.374,1.374,0,0,1-.388-1.016v-5.03a1.374,1.374,0,0,1,.388-1.016A1.374,1.374,0,0,1,97.073-7.125Zm.126-4.212h5.554q.524,0,.147-.4a26.633,26.633,0,0,1-2.766-3.563A22.922,22.922,0,0,1,97.2-11.338Zm5.784,2.326H98.2A1.374,1.374,0,0,1,97.188-9.4a1.374,1.374,0,0,1-.388-1.016v-.5q-.482.482-.713.692a1.4,1.4,0,0,1-1.016.482,1.281,1.281,0,0,1-.87-.671,1.46,1.46,0,0,1-.283-1.048,1.713,1.713,0,0,1,.66-.9,20.938,20.938,0,0,0,3.877-4.778,1.413,1.413,0,0,1,.566-.513,1.708,1.708,0,0,1,.838-.22h.482a1.583,1.583,0,0,1,1.425.754,20.057,20.057,0,0,0,3.982,4.527,1.661,1.661,0,0,1,.723.912,1.533,1.533,0,0,1-.325,1.1,1.262,1.262,0,0,1-.922.671,1.584,1.584,0,0,1-1.069-.5l-.356-.356v.943a.807.807,0,0,1-.22.6A.807.807,0,0,1,102.983-9.012Zm15.885-7.314h7.314a1.142,1.142,0,0,1,1.027.44,1.46,1.46,0,0,1,.084,1.216,21.379,21.379,0,0,1-.817,2.159.868.868,0,0,1-.451.367.935.935,0,0,1-.66.031,23.842,23.842,0,0,1,1.551,2.85,1.041,1.041,0,0,1,.031.828,1.424,1.424,0,0,1-.681.555,1.4,1.4,0,0,1-.954.2q-.388-.094-.618-.681a24.334,24.334,0,0,0-1.195-2.431,1.154,1.154,0,0,1-.136-1.027,1.107,1.107,0,0,1,.765-.713q.377-.9.629-1.656h-2.431v6.119a3.6,3.6,0,0,1-.2,1.352,1.4,1.4,0,0,1-.744.723,4.774,4.774,0,0,1-1.781.377q-.608.021-.168.356.147.1.4.314a.941.941,0,0,1-.063,1.572,1.494,1.494,0,0,1-.849.461,1.187,1.187,0,0,1-.828-.419,17.88,17.88,0,0,0-1.614-1.278q-1.153-.775-.147-1.656a1.169,1.169,0,0,1,1.4-.147q.189.1.566.356a8.083,8.083,0,0,0-.314-1.006q-.168-.377,0-.566A.918.918,0,0,1,118.7-7.8h.859q.335-.021.335-.314v-6.078h-2.159a14.909,14.909,0,0,1-1.174,1.593,1.314,1.314,0,0,1-.775.472,1.169,1.169,0,0,1-.817-.367,1.109,1.109,0,0,1-.042-1.844,11.7,11.7,0,0,0,1.656-2.7,1.15,1.15,0,0,1,1.53-.838.987.987,0,0,1,.8,1.467Zm-.943,6.706q-.566.88-.8,1.195a1.1,1.1,0,0,1-1.614.251,1.226,1.226,0,0,1-.629-.807,1.276,1.276,0,0,1,.44-.933,12.864,12.864,0,0,0,1.111-1.76,1.162,1.162,0,0,1,1.53-.713q1.216.314.713,1.446A13.714,13.714,0,0,1,117.925-9.619Zm-5.072,6.748A9.586,9.586,0,0,1,110.947.545a1.155,1.155,0,0,1-1.572.1q-1.257-.88-.168-1.928a7.375,7.375,0,0,0,1.32-2.221,1.1,1.1,0,0,1,1.572-.838A1.061,1.061,0,0,1,112.854-2.871Zm.587-11.841v7.859a1.065,1.065,0,0,1-1.195,1.216,1.084,1.084,0,0,1-1.236-1.216v-4.9l-.566.566q-1.027.9-1.781-.126a1.482,1.482,0,0,1-.346-1,1.417,1.417,0,0,1,.6-.87,17.512,17.512,0,0,0,3.416-4.066,1.156,1.156,0,0,1,1.53-.587.948.948,0,0,1,.608,1.53Q114.153-15.76,113.44-14.712Zm6.874,16.179H116.94a4.225,4.225,0,0,1-2.7-.618,3.045,3.045,0,0,1-.692-2.316v-2.1A1.1,1.1,0,0,1,114.8-4.8a1.1,1.1,0,0,1,1.257,1.236v2.054q0,.461.2.587a2.119,2.119,0,0,0,.933.126h2.892a1.2,1.2,0,0,0,.566-.1q.5-2.012,1.844-1.467a1.086,1.086,0,0,1,.608.849,2.418,2.418,0,0,1,0,1.184,2.319,2.319,0,0,1-.922,1.415A3.6,3.6,0,0,1,120.314,1.467Zm6.119-4.191q.922,1.3,1.048,1.509a1.042,1.042,0,0,1-.545,1.53q-1.257.713-1.76-.419a19.15,19.15,0,0,0-1.991-2.787q-.985-1.09.231-1.781a1.22,1.22,0,0,1,1.509.168Q125.6-3.772,126.434-2.724Zm8.446-3.332V-.9a4.358,4.358,0,0,1-.2,1.488,1.479,1.479,0,0,1-.7.8,4.583,4.583,0,0,1-1.865.4q-1.4.042-1.677-.922a.954.954,0,0,1,.147-1.037,1.693,1.693,0,0,1,1.195-.3h.251a.346.346,0,0,0,.356-.4V-5.26l-1.006.314a1.165,1.165,0,0,1-1.635-.922,1.51,1.51,0,0,1,.042-1.079,1.279,1.279,0,0,1,.9-.513q.251-.063.817-.2t.88-.22v-3.961H130.9a1.047,1.047,0,0,1-1.174-1.195,1.037,1.037,0,0,1,1.174-1.174h1.488v-2.7a1.093,1.093,0,0,1,1.236-1.236,1.1,1.1,0,0,1,1.257,1.236v2.7h.922a1.037,1.037,0,0,1,1.174,1.174,1.047,1.047,0,0,1-1.174,1.195h-.922v3.332l.566-.147q1.216-.293,1.341.943a1.085,1.085,0,0,1-.817,1.3ZM144.9-6.748h-4.4a10.549,10.549,0,0,0,2.2,2.976A9.6,9.6,0,0,0,144.9-6.748Zm-6.79-2.284h8.571a1.1,1.1,0,0,1,1.016.461,1.735,1.735,0,0,1,.031,1.362,12.28,12.28,0,0,1-2.934,4.946,12.1,12.1,0,0,0,2.892,1.278q2.012.5.985,1.97a1.6,1.6,0,0,1-1.823.545A14.8,14.8,0,0,1,142.7-.545a16.653,16.653,0,0,1-4.443,2.075,1.373,1.373,0,0,1-1.781-.608q-.775-1.383,1.006-1.8a12.731,12.731,0,0,0,3.206-1.425A14.544,14.544,0,0,1,138.861-4.8a1.324,1.324,0,0,1-.136-1.132,1.264,1.264,0,0,1,.849-.692l.377-.126h-1.195a.923.923,0,0,1-.828-.534,2.313,2.313,0,0,1-.3-1.163.808.808,0,0,1,.1-.4A.31.31,0,0,1,138-9.032h.042a5.9,5.9,0,0,0-.817-1.027q-.838-.817.377-1.76a4.807,4.807,0,0,0,1.132-3.374v-1.153a1.028,1.028,0,0,1,.272-.744,1,1,0,0,1,.754-.283h5.114a1.4,1.4,0,0,1,1.016.377,1.339,1.339,0,0,1,.388,1.006v3.269a1.293,1.293,0,0,0,.063.524.27.27,0,0,0,.251.1h.587a.225.225,0,0,0,.21-.1,2.452,2.452,0,0,1,.44-1.32.782.782,0,0,1,1.006-.168q.8.335.587,1.97a2.426,2.426,0,0,1-.66,1.352,1.955,1.955,0,0,1-1.31.388h-1.341a2.24,2.24,0,0,1-1.781-.576,3.478,3.478,0,0,1-.482-2.148v-1.8a.463.463,0,0,0-.524-.524h-2.2A6.691,6.691,0,0,1,138.107-9.032Zm14.67-7.67h3.751a.852.852,0,0,1,.964.964.852.852,0,0,1-.964.964h-3.751a.852.852,0,0,1-.964-.964A.852.852,0,0,1,152.777-16.7Zm12.868,12.49h-9.2v.545a.352.352,0,0,0,.4.4h8.3a.445.445,0,0,0,.5-.5Zm0-2.347h-9.2v.922h9.2Zm0-2.368h-8.676a.463.463,0,0,0-.524.524v.4h9.2Zm-5.742-1.53h7.125a6.572,6.572,0,0,1-3.248-2.305A7.172,7.172,0,0,1,159.9-10.458Zm2.18-6.308h6.685a1.084,1.084,0,0,1,1.016.44,1.333,1.333,0,0,1-.073,1.216,10.559,10.559,0,0,1-.922,1.488.946.946,0,0,1-1.111.231q-1.257-.377-.5-1.425a.405.405,0,0,0,.052-.073.4.4,0,0,1,.052-.073h-2.368q.566,1.8,3.248,2.557a4.056,4.056,0,0,1,1.666.671.764.764,0,0,1,.262,1.132,1.349,1.349,0,0,1-1.551.608,1.916,1.916,0,0,0-.314-.084v6.937a1.4,1.4,0,0,1-.377,1.016,1.339,1.339,0,0,1-1.006.388h-2.305q2.2.775,4.233,1.677a1.949,1.949,0,0,1,.859.6.376.376,0,0,1-.115.524,3.9,3.9,0,0,1-1.037.534,2.6,2.6,0,0,1-.713.178,1.723,1.723,0,0,1-.692-.178Q165.5.775,164.094.168q-.922-.377-.985-.849t.713-.933l.231-.126h-6.2l1.048.461q.419.189.451.43t-.325.451a26.623,26.623,0,0,1-5.03,2.075,1.393,1.393,0,0,1-1.446-.377Q151.31.063,153.2-.356a19.746,19.746,0,0,0,3.94-1.383H155.4a1.374,1.374,0,0,1-1.016-.388,1.374,1.374,0,0,1-.388-1.016v-5.91a1.374,1.374,0,0,1,.388-1.016,1.374,1.374,0,0,1,1.016-.388h3.039a7.617,7.617,0,0,0-.859-1.341q-2.955.859-4.925,1.362a.936.936,0,0,1-1.236-.713,1.291,1.291,0,0,1-.094-.87q.115-.325.66-.43.629-.126,1.98-.44t1.959-.44a1.53,1.53,0,0,1,1.195.126,1.253,1.253,0,0,1,.545.964l.021.251a9.39,9.39,0,0,0,3.353-1.111,3.244,3.244,0,0,0,1.383-1.865h-1.53a12.957,12.957,0,0,1-.9.985,1.2,1.2,0,0,1-1.572.251q-1.132-.713.126-1.76a9.524,9.524,0,0,0,1.509-1.928A1.149,1.149,0,0,1,161.432-18q1.174.189.671,1.195l-.021.021ZM190.772.817h-16.7a1.148,1.148,0,0,1-1.3-1.3,1.139,1.139,0,0,1,1.3-1.278h6.308V-16.577a1.2,1.2,0,0,1,1.362-1.341,1.2,1.2,0,0,1,1.362,1.341v4.8h6.2a1.13,1.13,0,0,1,1.278,1.278,1.149,1.149,0,0,1-1.278,1.32h-6.2V-1.76h7.67a1.139,1.139,0,0,1,1.3,1.278A1.148,1.148,0,0,1,190.772.817Zm9.766-7.628h-3.4V-3.1q0,.5.524.5h2.368a.445.445,0,0,0,.5-.5Zm-3.4-2.2h3.4v-2.955q0-.524-.5-.524h-2.368a.463.463,0,0,0-.524.524Zm10.122-5.868h4.59a1.1,1.1,0,0,1,1.027.608,4.677,4.677,0,0,1,.293,2.18q-.189,6.518-.461,9.137a7.543,7.543,0,0,1-.859,3.374,2.623,2.623,0,0,1-1.425,1.069,10.838,10.838,0,0,1-2.515.21,1.888,1.888,0,0,1-1.121-.367A1.453,1.453,0,0,1,206.238.4a.161.161,0,0,0-.021-.063q-.272-.545-.031-.828a1.21,1.21,0,0,1,1-.241q.733.021,1.656.021a1.248,1.248,0,0,0,.922-.356,6.493,6.493,0,0,0,.692-2.871q.251-2.368.419-7.628a1.541,1.541,0,0,0-.1-.786.436.436,0,0,0-.4-.2h-4.024q-.293.713-1.111,2.2a1.23,1.23,0,0,1-.859.6,1.442,1.442,0,0,1-1.09-.283q-.084-.063-.231-.168t-.231-.168v8.634a1.374,1.374,0,0,1-.388,1.016,1.374,1.374,0,0,1-1.016.388h-5.176a1.339,1.339,0,0,1-1.006-.388,1.4,1.4,0,0,1-.377-1.016V-13.329a1.36,1.36,0,0,1,.377-1.006,1.36,1.36,0,0,1,1.006-.377h1.027q.231-.859.44-2.1a1.483,1.483,0,0,1,.451-.985,1.419,1.419,0,0,1,1.058-.189q1.425.21.9,1.718-.147.44-.587,1.551h1.886a1.4,1.4,0,0,1,1.016.377,1.339,1.339,0,0,1,.388,1.006v2.075a19.782,19.782,0,0,0,2.557-5.679,1.147,1.147,0,0,1,1.509-.943,1.049,1.049,0,0,1,.88,1.467Q207.6-15.8,207.265-14.879Zm-.231,10.017q-.859-1.488-1.76-2.892a.976.976,0,0,1,.419-1.551,1.04,1.04,0,0,1,1.53.293q1.006,1.425,1.991,3.039.524.9-.5,1.509Q207.579-3.73,207.035-4.862ZM229.165-14h1.928v-.5q0-.377-.356-.377h-1.572Zm0,2.85h1.53q.4,0,.4-.419v-.461h-1.928Zm4.59,7.712h-4.59v.524A1.074,1.074,0,0,1,227.95-1.7a1.084,1.084,0,0,1-1.236-1.216v-.524h-4.045a.88.88,0,0,1-.985-1.006.871.871,0,0,1,.985-.985h4.045V-6.434h-3.206a.815.815,0,0,1-.922-.922.815.815,0,0,1,.922-.922h3.206v-.943h-3.039a.852.852,0,0,1-.964-.964.852.852,0,0,1,.964-.964h3.039v-.88h-4.359q-.964,0-.964-1.006a.852.852,0,0,1,.964-.964h4.359v-.88h-2.934a.852.852,0,0,1-.964-.964.852.852,0,0,1,.964-.964h2.934v-.042q0-1.174,1.236-1.174a1.056,1.056,0,0,1,1.216,1.174v.042H232.2a1.339,1.339,0,0,1,1.006.388,1.4,1.4,0,0,1,.377,1.016V-14h.629a.852.852,0,0,1,.964.964q0,1.006-.964,1.006h-.629v1.467a1.339,1.339,0,0,1-.356.975,1.282,1.282,0,0,1-.964.367h-3.1v.943h3.667a.815.815,0,0,1,.922.922.815.815,0,0,1-.922.922h-3.667v1.006h4.59a.88.88,0,0,1,1.006.985A.889.889,0,0,1,233.755-3.437Zm-.4,4.757h-5.093a23.734,23.734,0,0,1-5.03-.461,9.28,9.28,0,0,1-3.688-1.677,9.761,9.761,0,0,1-1.467,1.949,1.5,1.5,0,0,1-.87.461,1.266,1.266,0,0,1-.87-.419,1.347,1.347,0,0,1-.534-.985,1.555,1.555,0,0,1,.639-.964,8.572,8.572,0,0,0,1.341-1.865,12.959,12.959,0,0,1-1.635-3.06q-.356-1.111.566-1.446a.985.985,0,0,1,1.425.733,9.3,9.3,0,0,0,.65,1.3,21.868,21.868,0,0,0,.65-3.039q.1-.566-.419-.566h-.943l-.021.042a.629.629,0,0,1-.388.377.9.9,0,0,1-.576.021,1.617,1.617,0,0,1-.975-.6.925.925,0,0,1-.031-1q.859-1.844,2.138-4.9h-1.635a.982.982,0,0,1-1.111-1.111A.982.982,0,0,1,216.591-17h3.248a1.2,1.2,0,0,1,1.037.419,1.22,1.22,0,0,1,.073,1.132q-.817,2.221-1.865,4.506h1.572q1.4,0,1.257,1.718a25.729,25.729,0,0,1-1.341,6.2,7.5,7.5,0,0,0,3.238,1.509,22.956,22.956,0,0,0,4.516.419q3.479,0,5.386-.021.964-.021,1.216.3T234.844.4A1.432,1.432,0,0,1,233.357,1.32ZM255.592-9.431H244.736a.806.806,0,0,1-.9-.922.8.8,0,0,1,.9-.9h4.212v-.859h-2.976a.7.7,0,0,1-.8-.8.7.7,0,0,1,.8-.8h2.976v-.8h-3.626a.75.75,0,0,1-.838-.859.741.741,0,0,1,.838-.838h1.488q-.147-.293-.231-.44-.566-.922.482-1.278a.975.975,0,0,1,1.195.356,9.436,9.436,0,0,1,.733,1.362h2.62a6.68,6.68,0,0,0,.545-1.027,1.059,1.059,0,0,1,1.362-.713q1.341.314.272,1.739h1.446a.741.741,0,0,1,.838.838.75.75,0,0,1-.838.859H251.38v.8h3.248a.7.7,0,0,1,.8.8.7.7,0,0,1-.8.8H251.38v.859h4.212a.8.8,0,0,1,.9.9A.806.806,0,0,1,255.592-9.431ZM238.826-17.52h3.521a.852.852,0,0,1,.964.964.861.861,0,0,1-.964.985h-3.521a.861.861,0,0,1-.964-.985A.852.852,0,0,1,238.826-17.52Zm-.943,2.892h4.988a.889.889,0,0,1,1.006,1.006.889.889,0,0,1-1.006,1.006h-4.988a.889.889,0,0,1-1.006-1.006A.889.889,0,0,1,237.883-14.628ZM241.32-1.8V-3.248q0-.5-.524-.5h-.65q-.524,0-.524.5V-1.8a.463.463,0,0,0,.524.524h.65A.463.463,0,0,0,241.32-1.8Zm-2.263-3.94h2.934a1.317,1.317,0,0,1,.974.367,1.317,1.317,0,0,1,.367.975V-.692a1.4,1.4,0,0,1-.377,1.016,1.339,1.339,0,0,1-1.006.388h-2.892a1.339,1.339,0,0,1-1.006-.388,1.4,1.4,0,0,1-.377-1.016V-4.359a1.36,1.36,0,0,1,.377-1.006A1.36,1.36,0,0,1,239.057-5.742Zm3.374-1.069H238.68a.843.843,0,0,1-.943-.964.834.834,0,0,1,.943-.943h3.751a.834.834,0,0,1,.943.943A.843.843,0,0,1,242.431-6.811ZM242.41-9.7H238.7a.861.861,0,0,1-.964-.985.852.852,0,0,1,.964-.964h3.709a.852.852,0,0,1,.964.964A.861.861,0,0,1,242.41-9.7Zm7.167,2.18-.943.189v1.216h1.886q-.021-.189-.042-.576t-.021-.513q-.042-.545-.5-.419a.808.808,0,0,0-.178.042Zm5.973,3.248h-2.808q.084.671.293,1.593.084-.084.262-.293t.262-.293a.927.927,0,0,1,1.3-.356q.9.44.293,1.257a12.188,12.188,0,0,1-1.446,1.53q.461.817,1.09.817a.355.355,0,0,0,.293-.189,1.748,1.748,0,0,1,.43-.943.609.609,0,0,1,.786-.021q.5.314.314,1.362a2.721,2.721,0,0,1-.754,1.352,1.943,1.943,0,0,1-1.3.409,2.868,2.868,0,0,1-2.494-1.53,13.447,13.447,0,0,1-1.467.838.93.93,0,0,1-1.195-.189q-.733-.8.314-1.278a14.846,14.846,0,0,0,1.614-.985,17.6,17.6,0,0,1-.65-3.081h-2.054v.817l.754-.084a.786.786,0,0,1,.964.859.826.826,0,0,1-.817.964l-.9.1V-.168a2.843,2.843,0,0,1-.178,1.142,1.221,1.221,0,0,1-.639.6,6.194,6.194,0,0,1-1.823.272q-1.027.042-1.278-.713a.7.7,0,0,1,.1-.807,1.328,1.328,0,0,1,.943-.241h.335q.356-.021.356-.314V-1.362q-1.153.168-1.635.21-.9.126-1.027-.859t.8-1.069q.314-.021,1.865-.168V-4.275h-1.739a.815.815,0,0,1-.922-.922.815.815,0,0,1,.922-.922h1.739v-.922q-.251.042-.723.084t-.555.042a.827.827,0,0,1-.922-.587q-.272-.838.713-.943,2.054-.272,3.311-.566a1.29,1.29,0,0,1,.817.063,1.731,1.731,0,0,1,.733.524l.272.293q.335.377.314-.126V-8.3a.533.533,0,0,1,.22-.482.907.907,0,0,1,.576-.189,1.413,1.413,0,0,1,.912.293.988.988,0,0,1,.367.817q.042,1.006.063,1.739h1.677q.5,0,.251-.356A9.139,9.139,0,0,0,253.2-7.754q-.461-.335.021-.65l.042-.042a1.39,1.39,0,0,1,1.865.21q1.216,1.111.042,1.97l-.21.147h.587a.815.815,0,0,1,.922.922A.815.815,0,0,1,255.55-4.275Zm12.763-.377a3.347,3.347,0,0,1-2.452-1.027,3.347,3.347,0,0,1-1.027-2.452,3.347,3.347,0,0,1,1.027-2.452,3.347,3.347,0,0,1,2.452-1.027,3.336,3.336,0,0,1,2.462,1.027,3.364,3.364,0,0,1,1.016,2.452,3.364,3.364,0,0,1-1.016,2.452A3.336,3.336,0,0,1,268.313-4.652Zm1.362-4.841a1.857,1.857,0,0,0-1.362-.566,1.857,1.857,0,0,0-1.362.566,1.857,1.857,0,0,0-.566,1.362,1.857,1.857,0,0,0,.566,1.362,1.857,1.857,0,0,0,1.362.566,1.857,1.857,0,0,0,1.362-.566,1.857,1.857,0,0,0,.566-1.362A1.857,1.857,0,0,0,269.675-9.494Z" transform="translate(166.62 489.94)" fill="#231815"/>
      </g>
      <path id="Path_23" data-name="Path 23" d="M46.234-59.2H63.07a4.4,4.4,0,0,1,3.259,1.222,4.4,4.4,0,0,1,1.222,3.259v3.327A4.521,4.521,0,0,1,66.329-48.1a4.339,4.339,0,0,1-3.259,1.256H56.757q-1.7,0-1.7,1.629v27.428A4.339,4.339,0,0,1,53.8-14.529a4.521,4.521,0,0,1-3.293,1.222H46.234a4.521,4.521,0,0,1-3.293-1.222,4.339,4.339,0,0,1-1.256-3.259V-54.72a4.339,4.339,0,0,1,1.256-3.259A4.521,4.521,0,0,1,46.234-59.2Zm16.633,3.055H46.437q-1.7,0-1.7,1.629v36.525q0,1.629,1.7,1.629h3.938q1.7,0,1.7-1.629V-45.419a4.339,4.339,0,0,1,1.256-3.259A4.521,4.521,0,0,1,56.621-49.9h6.246q1.629,0,1.629-1.7v-2.919A1.44,1.44,0,0,0,62.867-56.146Z" transform="translate(-70.07 157.87)" fill="#1868b3"/>
      <path id="Path_22" data-name="Path 22" d="M46.234-59.2H63.07a4.4,4.4,0,0,1,3.259,1.222,4.4,4.4,0,0,1,1.222,3.259v3.327A4.521,4.521,0,0,1,66.329-48.1a4.339,4.339,0,0,1-3.259,1.256H56.757q-1.7,0-1.7,1.629v27.428A4.339,4.339,0,0,1,53.8-14.529a4.521,4.521,0,0,1-3.293,1.222H46.234a4.521,4.521,0,0,1-3.293-1.222,4.339,4.339,0,0,1-1.256-3.259V-54.72a4.339,4.339,0,0,1,1.256-3.259A4.521,4.521,0,0,1,46.234-59.2Zm16.633,3.055H46.437q-1.7,0-1.7,1.629v36.525q0,1.629,1.7,1.629h3.938q1.7,0,1.7-1.629V-45.419a4.339,4.339,0,0,1,1.256-3.259A4.521,4.521,0,0,1,56.621-49.9h6.246q1.629,0,1.629-1.7v-2.919A1.44,1.44,0,0,0,62.867-56.146Z" transform="translate(444.52 127.62) rotate(180)" fill="#1868b3"/>
    </g>
  </g>
</svg>
