<svg xmlns="http://www.w3.org/2000/svg" xmlns:xlink="http://www.w3.org/1999/xlink" width="91.436" height="31.5" viewBox="0 0 91.436 31.5">
  <defs>
    <clipPath id="clip-path">
      <rect id="Rectangle_10" data-name="Rectangle 10" width="12.43" height="4.44" transform="translate(261.33 48.33)" fill="none"/>
    </clipPath>
  </defs>
  <g id="Group_11" data-name="Group 11" transform="translate(-254.494 -40.67)">
    <rect id="Rectangle_9" data-name="Rectangle 9" width="1.3" height="2.37" transform="translate(266.9 42.81)" fill="#fafafb"/>
    <path id="Path_1" data-name="Path 1" d="M263.19,54.62c1.53,2.91,1,6.18-1.15,7.31s-5.14-.3-6.67-3.2-1-6.18,1.15-7.32,5.15.31,6.67,3.21" fill="#f3f4f4"/>
    <path id="Path_2" data-name="Path 2" d="M279.11,58.47c-1.38,3-4.29,4.56-6.5,3.54s-2.9-4.27-1.52-7.24,4.29-4.57,6.5-3.54,2.89,4.26,1.52,7.24" fill="#f3f4f4"/>
    <path id="Path_3" data-name="Path 3" d="M264.58,62.66a4.79,4.79,0,0,1-6.75,6.69,4.79,4.79,0,0,1,6.75-6.69" fill="#f3f4f4"/>
    <path id="Path_4" data-name="Path 4" d="M270.34,62.66a4.79,4.79,0,0,0,6.76,6.69,4.79,4.79,0,0,0-6.76-6.69" fill="#f3f4f4"/>
    <path id="Path_5" data-name="Path 5" d="M275.59,55.83c0,6.45-3.6,11.68-8,11.68s-8-5.23-8-11.68,3.6-11.69,8-11.69,8,5.23,8,11.69" fill="#f3f4f4"/>
    <path id="Path_6" data-name="Path 6" d="M260.87,49.34c.09,0,.15.23.15.31a2.334,2.334,0,0,1-.21.68,13,13,0,0,0-.33,5.92,34.742,34.742,0,0,0,1,4.5,6.751,6.751,0,0,0,7.46,5A6.61,6.61,0,0,0,273.11,63c1.74-2.18,2.21-4.81,2.49-7.49a.763.763,0,0,1,.15-.57c.43,1.24,0,2.47-.06,3.7a31.066,31.066,0,0,1-.85,3.42l-1.37,2.49c-.26.09-.37.32-.54.52a7.13,7.13,0,0,1-3.22,2.29c-1.18-.11-2.36.38-3.55,0a2,2,0,0,0-1.12-.14h-.26a8.91,8.91,0,0,1-3.07-2.65,14.65,14.65,0,0,1-2.42-10.64,8.7,8.7,0,0,1,.23-1.13,4.221,4.221,0,0,0,0-.62,1.64,1.64,0,0,1,.47-1,1.589,1.589,0,0,0,.2-.39c.16-.38.33-.76.48-1.15,0-.07.12-.27.21-.28h0" fill="#dbdada"/>
    <path id="Path_7" data-name="Path 7" d="M260.35,70.49a1.5,1.5,0,0,1,.43-.4,6.259,6.259,0,0,1,.75-.32,2,2,0,0,0,1.23-1.8c0-1.07-.9-1.77-1.49-2.55a5.19,5.19,0,0,1-1-2.56,1.4,1.4,0,0,0-.07-.4c-.2-.5-.83-.27-1.22-.39a1.73,1.73,0,0,1-.6-.27,5.231,5.231,0,0,1-1-.66,7.92,7.92,0,0,1-2.21-2.6,7.43,7.43,0,0,1-.57-4.2,9.17,9.17,0,0,0,1.6,4,1.72,1.72,0,0,0,.77.5.89.89,0,0,0,.87-.23,1.45,1.45,0,0,0,.25-.83,15,15,0,0,1,1.54-6.07,32.072,32.072,0,0,0-.29,5.79,13,13,0,0,0,2.13,6.27,12.3,12.3,0,0,0,1,1.34,5.89,5.89,0,0,0,2.3,1.62c.23.09.51.21.53.45a.48.48,0,0,1-.07.26,5.1,5.1,0,0,1-4.9,3.09h0" fill="#b1b2b2"/>
    <path id="Path_8" data-name="Path 8" d="M261.41,50.27a.21.21,0,0,1,.11,0c.22.17.37.46.58.64a4.17,4.17,0,0,0,.91.59,10,10,0,0,0,2.25.85,9.84,9.84,0,0,0,4.61,0,18.171,18.171,0,0,0,2.68-1.05,1.28,1.28,0,0,0,.72-.57,1.1,1.1,0,0,0-.37-1.25,6.62,6.62,0,0,0-1.21-.71.34.34,0,0,1,.42-.18,1,1,0,0,1,.4.28,11.731,11.731,0,0,1,1.19,1.35c.57.81-1.36,1.73-1.9,2a9.06,9.06,0,0,1-4.61,1,10.5,10.5,0,0,1-3.35-.83,8.731,8.731,0,0,1-1.75-.89,2.821,2.821,0,0,1-.73-.65c-.06-.09-.22-.62.05-.56" fill="#dbdada"/>
    <path id="Path_9" data-name="Path 9" d="M275.31,51.13a.37.37,0,0,1,.12.13,6.09,6.09,0,0,1,.55,2.67c0,1,.06,1.9,0,2.85a11.786,11.786,0,0,1-.14,1.68,7.679,7.679,0,0,1-.19.83c-.15.55.19.5.51.42a6.28,6.28,0,0,0,1.61-.61,7.081,7.081,0,0,0,.79-.56,5.391,5.391,0,0,1,.63-.43,2.73,2.73,0,0,1-.49,1.26,5.819,5.819,0,0,1-.94,1.11,8,8,0,0,1-1.51,1.19c-.45.25-1.4.7-1.91.4s-.2-.84-.05-1.18a10.779,10.779,0,0,0,.63-1.81,14.25,14.25,0,0,0,.48-3.95,4.589,4.589,0,0,0-.06-.91c-.06-.3-.07-.59-.12-.89-.1-.64-.25-1.25-.4-1.87a.51.51,0,0,1,0-.21c0-.29.31-.26.48-.12" fill="#b1b2b2"/>
    <path id="Path_10" data-name="Path 10" d="M269.63,67.33c.23-.39.67-.45,1-.65a11.7,11.7,0,0,0,3-2.4c.1.7-.32,1-.64,1.37a13.879,13.879,0,0,1-1.14,1.16.83.83,0,0,0-.17,1.11,4.43,4.43,0,0,0,1.21,1.54,4.75,4.75,0,0,0,.83.51,3.8,3.8,0,0,0,.47.18,1.91,1.91,0,0,0,.47.12,2.32,2.32,0,0,0,.46-.06.41.41,0,0,1,.22,0l.14.11a4.93,4.93,0,0,1-5.16-1.87,6,6,0,0,1-.67-1.12" fill="#b1b2b2"/>
    <path id="Path_11" data-name="Path 11" d="M268.93,42.05a1.38,1.38,0,1,1-1.38-1.38,1.38,1.38,0,0,1,1.38,1.38" fill="#f3f4f4"/>
    <path id="Path_12" data-name="Path 12" d="M266.42,41.24c0,1.13.43,1.68,1.43,1.86.57.11.57-.61,1-.63a1.47,1.47,0,0,1-.63.94c-.09.07-.06.17-.06.27v.46h-1.3v-.7a1.381,1.381,0,0,1-.18-.13,1.311,1.311,0,0,1-.26-.27,1.69,1.69,0,0,1,0-1.81" fill="#aab0b4"/>
    <g id="Group_10" data-name="Group 10" clip-path="url(#clip-path)">
      <g id="Group_9" data-name="Group 9">
        <path id="Path_13" data-name="Path 13" d="M271.83,48.33l1.92,1.92c-.7,1.45-3.21,2.52-6.21,2.52s-5.51-1.07-6.21-2.52l1.92-1.92a7.32,7.32,0,0,0,8.58,0" fill="#1868b3"/>
      </g>
    </g>
    <path id="Path_14" data-name="Path 14" d="M291.74,62.59V60.95a5.32,5.32,0,0,1-4.12,1.94c-2.4,0-4.48-1.5-4.48-4s2.08-3.83,5.08-4l3.47-.14v-.52c0-2-1.34-2.95-3.22-2.95a8,8,0,0,0-3.91,1.12l-.79-1.75a10.06,10.06,0,0,1,4.86-1.31c3.8,0,5.68,1.91,5.68,5.68v7.54Zm-3.09-6c-2.1.11-2.94,1-2.94,2.24s1,2.24,2.67,2.24a4.09,4.09,0,0,0,3.31-1.88V56.36Z" fill="#040000"/>
    <rect id="Rectangle_11" data-name="Rectangle 11" width="2.59" height="18.84" transform="translate(297.77 43.75)" fill="#040000"/>
    <path id="Path_15" data-name="Path 15" d="M328.06,62.59V55.24c0-1.85-.3-3.71-2.67-3.71s-3.39,2-3.39,4.64v6.42h-2.59V43.75H322v7.92h.06a4.41,4.41,0,0,1,4-2.3c3.74,0,4.64,2.41,4.64,5.49v7.73Z" fill="#040000"/>
    <path id="Path_16" data-name="Path 16" d="M341.4,62.59V60.95a5.34,5.34,0,0,1-4.12,1.94c-2.4,0-4.48-1.5-4.48-4s2.08-3.83,5.08-4l3.47-.14v-.52c0-2-1.34-2.95-3.23-2.95a8,8,0,0,0-3.9,1.12l-.79-1.75a10,10,0,0,1,4.86-1.31c3.79,0,5.68,1.91,5.68,5.68v7.54Zm-3.09-6c-2.1.11-2.95,1-2.95,2.24S336.32,61,338,61a4.06,4.06,0,0,0,3.3-1.88V56.36Z" fill="#040000"/>
    <text id="robo-advisor" transform="translate(310.93 70.17)" fill="#040000" font-size="6.4" font-family="SegoeUI-Light, Segoe UI" font-weight="300"><tspan x="0" y="0">robo-advisor</tspan></text>
    <path id="Path_17" data-name="Path 17" d="M314.18,50.16l-1.38,2a4.54,4.54,0,0,1,1.81,3.88c0,2.6-1.53,4.59-4.13,4.59a3.89,3.89,0,0,1-2.75-1L306.8,61a5,5,0,0,0,4.2,1.89c3.85,0,6.31-3,6.31-6.8a6.55,6.55,0,0,0-3.1-5.93" fill="#040000"/>
    <path id="Path_18" data-name="Path 18" d="M306.42,56.94a6.283,6.283,0,0,1-.06-.88c0-2.47,1.39-4.36,3.76-4.54l1.45-2.12h-.54a5.52,5.52,0,0,0-4.62,2.3h-.05V49.62h-2.51V60.71Z" fill="#040000"/>
    <path id="Path_19" data-name="Path 19" d="M303.85,65.3v4.98h2.6V67.67h.02V61.46Z" fill="#040000"/>
    <path id="Path_20" data-name="Path 20" d="M294.93,68.89H283.11a.18.18,0,0,1-.18-.18.19.19,0,0,1,.18-.19h11.75L299,64.91a.18.18,0,0,1,.17,0,.2.2,0,0,1,.13.12l1,2.85,14.44-21.45a.18.18,0,1,1,.3.2L300.37,68.36a.18.18,0,0,1-.33,0l-1-2.94-4,3.48a.16.16,0,0,1-.12,0" fill="#1868b3"/>
    <path id="Path_21" data-name="Path 21" d="M316.3,45.16a1.7,1.7,0,1,1-1.205-.5,1.7,1.7,0,0,1,1.205.5" fill="#1868b3"/>
  </g>
</svg>
