<svg id="圖層_1" data-name="圖層 1" xmlns="http://www.w3.org/2000/svg" viewBox="0 0 170.08 170.08">
  <defs>
    <style>
      .cls-1 {
        fill: #1468b2;
      }

      .cls-2 {
        fill: #f9f9fa;
      }

      .cls-3 {
        fill: #f2f3f3;
      }

      .cls-4 {
        fill: #dad9d9;
      }

      .cls-5 {
        fill: #b0b1b0;
      }

      .cls-6 {
        fill: #a9afb3;
      }
    </style>
  </defs>
  <rect class="cls-1" x="-2.43" y="-1.85" width="174.32" height="174.32"/>
  <g>
    <rect class="cls-2" x="84.01" y="35.67" width="5.05" height="9.22"/>
    <path class="cls-3" d="M69.61,81.56c5.92,11.29,3.92,24-4.47,28.42s-20-1.18-25.92-12.47-3.93-24,4.47-28.41S63.68,70.27,69.61,81.56Z"/>
    <path class="cls-3" d="M131.45,96.52c-5.35,11.57-16.66,17.73-25.26,13.75S95,93.69,100.3,82.12,117,64.39,125.56,68.37,136.8,85,131.45,96.52Z"/>
    <path class="cls-3" d="M75,112.8c6.32,6.39,5.58,17.39-1.66,24.56s-18.25,7.83-24.58,1.44-5.58-17.38,1.66-24.56S68.68,106.42,75,112.8Z"/>
    <path class="cls-3" d="M97.4,112.8c-6.33,6.39-5.58,17.39,1.66,24.56s18.25,7.83,24.58,1.44,5.58-17.38-1.66-24.56S103.73,106.42,97.4,112.8Z"/>
    <ellipse class="cls-3" cx="86.53" cy="86.24" rx="31.24" ry="45.4"/>
    <path class="cls-4" d="M60.58,61c.36.07.58.91.6,1.21.06,1-.56,1.76-.81,2.64a50.06,50.06,0,0,0-1.31,23,130,130,0,0,0,3.87,17.45c4.33,13.43,15.05,21,29,19.27,6.48-.8,12-5.25,16.25-10.57,6.77-8.5,8.57-18.7,9.67-29.11.08-.78-.17-1.63.57-2.24,1.67,4.83,0,9.61-.23,14.4-.25,4.63-2.52,8.78-3.3,13.29l-5.31,9.66c-1,.34-1.47,1.27-2.1,2A27.43,27.43,0,0,1,94.94,131c-4.6-.43-9.18,1.49-13.8,0a7.77,7.77,0,0,0-4.35-.54h-1a34.12,34.12,0,0,1-11.92-10.31c-9-12.44-11-26.44-9.43-41.34.16-1.49.73-2.9.92-4.39a19.61,19.61,0,0,0-.12-2.42c0-1.55.93-2.65,1.82-3.82a7.5,7.5,0,0,0,.79-1.51c.62-1.5,1.27-3,1.87-4.48.11-.29.44-1.07.82-1.1Z"/>
    <path class="cls-5" d="M58.56,143.23a5.71,5.71,0,0,1,1.67-1.54,29.36,29.36,0,0,1,2.93-1.26,7.87,7.87,0,0,0,4.75-7c-.09-4.14-3.48-6.86-5.76-9.91a20.1,20.1,0,0,1-3.9-9.93A5.57,5.57,0,0,0,58,112c-.76-1.92-3.22-1-4.75-1.5a7.51,7.51,0,0,1-2.33-1.07,22.46,22.46,0,0,1-4-2.54,31,31,0,0,1-8.55-10.1C36.3,92.49,35,85.1,36.13,80.45c1,4.67,2.88,12,6.21,15.4a6.63,6.63,0,0,0,3,1.94,3.42,3.42,0,0,0,3.35-.87,5.5,5.5,0,0,0,1-3.22c.68-7.77,2-16.91,6-23.62-.83,7.09-1.69,15.4-1.14,22.52A50.61,50.61,0,0,0,62.84,117a45,45,0,0,0,4,5.2,23.34,23.34,0,0,0,9,6.32c.88.33,2,.78,2,1.72a2.26,2.26,0,0,1-.25,1,19.93,19.93,0,0,1-19.07,12Z"/>
    <path class="cls-4" d="M62.69,64.63a1.29,1.29,0,0,1,.4.21c.86.65,1.45,1.78,2.28,2.5a17.29,17.29,0,0,0,3.52,2.29,37.19,37.19,0,0,0,26.68,3.12c3.72-.92,6.91-2.64,10.39-4.09a5,5,0,0,0,2.8-2.2c.81-1.64-.07-3.67-1.43-4.88a25.27,25.27,0,0,0-4.69-2.77,1.29,1.29,0,0,1,1.6-.69,3.65,3.65,0,0,1,1.56,1.11,41.12,41.12,0,0,1,4.64,5.23c2.22,3.16-5.28,6.71-7.36,7.78A35.35,35.35,0,0,1,85.16,76a40.34,40.34,0,0,1-13-3.22,33.58,33.58,0,0,1-6.79-3.44,11.53,11.53,0,0,1-2.85-2.54C62.24,66.48,61.63,64.4,62.69,64.63Z"/>
    <path class="cls-5" d="M116.71,68a1.47,1.47,0,0,1,.44.5c1.7,3.17,2,6.86,2.14,10.39s.24,7.4.18,11.08a43.42,43.42,0,0,1-.57,6.54c-.19,1.09-.42,2.17-.71,3.23-.59,2.12.71,1.93,2,1.63A23.42,23.42,0,0,0,126.4,99a24.3,24.3,0,0,0,3.07-2.17,20.6,20.6,0,0,1,2.45-1.65c.07,1.54-1.11,3.58-1.89,4.87a21.55,21.55,0,0,1-3.66,4.32,30.06,30.06,0,0,1-5.87,4.62c-1.75,1-5.43,2.74-7.4,1.58-1.61-1-.79-3.28-.2-4.59a46.27,46.27,0,0,0,2.44-7.05,54.94,54.94,0,0,0,1.87-15.36c0-1.17-.12-2.34-.24-3.5s-.29-2.33-.47-3.48c-.4-2.46-1-4.86-1.56-7.28a2.14,2.14,0,0,1-.09-.79C115,67.32,116,67.47,116.71,68Z"/>
    <path class="cls-5" d="M94.63,131c.88-1.52,2.6-1.77,4-2.53a45.72,45.72,0,0,0,11.5-9.35c.37,2.73-1.25,3.89-2.51,5.33a55.18,55.18,0,0,1-4.41,4.51c-1.44,1.31-1.47,2.68-.67,4.3a17.43,17.43,0,0,0,4.72,6,15.77,15.77,0,0,0,3.21,2,16.67,16.67,0,0,0,1.82.7,8.9,8.9,0,0,0,1.84.48,6.71,6.71,0,0,0,1.78-.25,1.83,1.83,0,0,1,.84,0,2.8,2.8,0,0,1,.56.42c-7.75,2.13-15.27-1.22-20.06-7.27A24.84,24.84,0,0,1,94.63,131Z"/>
    <path class="cls-3" d="M91.9,32.69a5.37,5.37,0,1,1-5.37-5.36A5.36,5.36,0,0,1,91.9,32.69Z"/>
    <path class="cls-6" d="M82.17,29.56c-.08,4.4,1.67,6.52,5.54,7.24,2.2.4,2.2-2.4,4-2.46A5.66,5.66,0,0,1,89.29,38c-.35.25-.24.64-.24,1s0,.31,0,1.79c-1.36,0-3.68.1-5,0,0-1.07,0-2.72,0-2.72s-.35-.2-.71-.49a5.74,5.74,0,0,1-1-1.07A6.45,6.45,0,0,1,82.17,29.56Z"/>
    <path class="cls-1" d="M103.19,57.11l7.46,7.46c-2.72,5.64-12.5,9.81-24.15,9.81s-21.42-4.17-24.14-9.81l7.47-7.46c3,3.2,9.37,5.39,16.67,5.39S100.14,60.31,103.19,57.11Z"/>
  </g>
</svg>
