<svg id="圖層_1" data-name="圖層 1" xmlns="http://www.w3.org/2000/svg" viewBox="0 0 24 24"><defs><style>.cls-1{fill:#16344F;}.cls-2,.cls-3,.cls-4{fill:none;}.cls-2,.cls-3{stroke:#fff;}.cls-2,.cls-4{stroke-miterlimit:10;}.cls-3{stroke-linecap:round;stroke-linejoin:round;}.cls-4{stroke:#16344F;}</style></defs><title>圖表目標icon</title><rect class="cls-1" x="5.91" y="5.55" width="12.27" height="9.54" rx="2.48"/><line class="cls-2" x1="12.05" y1="7.97" x2="12.05" y2="7.02"/><line class="cls-2" x1="12.05" y1="13.54" x2="12.05" y2="12.59"/><polyline class="cls-3" points="13.54 8.34 10.66 8.34 10.66 10.46 13.46 10.46 13.46 12.2 10.56 12.2"/><path class="cls-4" d="M21.53,9.94A9.34,9.34,0,0,0,12.05.75,9.34,9.34,0,0,0,2.56,9.94c0,4.19,3.06,6.7,5.63,9.55,1,1.16,2.11,2.3,3.16,3.45a.92.92,0,0,0,1.36,0c1.91-2.08,3.92-4.09,5.7-6.28C20,14.72,21.53,12.55,21.53,9.94Z"/></svg>