<svg id="圖層_1" data-name="圖層 1" xmlns="http://www.w3.org/2000/svg" viewBox="0 0 24 24"><defs><style>.cls-1{fill:none;stroke:#5FC1DD;stroke-miterlimit:10;}.cls-2{fill:#5FC1DD;}</style></defs><title>六大目標</title><line class="cls-1" x1="6.07" y1="7.82" x2="10.23" y2="7.82"/><line class="cls-1" x1="8.15" y1="5.74" x2="8.15" y2="9.9"/><circle class="cls-2" cx="12.63" cy="6.31" r="1.6"/><path class="cls-2" d="M9.68,10v1.3h6.05V10A4.22,4.22,0,0,0,9.68,10Z"/><path class="cls-2" d="M15.27,7.91a1.57,1.57,0,0,0,1.56-.86,1.6,1.6,0,0,0-.7-2.15,1.58,1.58,0,0,0-1.34-.05A8.35,8.35,0,0,1,15.27,7.91Z"/><path class="cls-2" d="M16.39,8.82a8.34,8.34,0,0,1,.39,2.42h1.56V10A4.58,4.58,0,0,0,16.39,8.82Z"/><path class="cls-1" d="M19.54,12a7.62,7.62,0,0,0,.88-3.38,7.87,7.87,0,0,0-15.74,0c0,2.21,1,3.8,2.17,5.55L9.35,18l3.2,4.87c1.45-2.21,2.86-4.46,4.33-6.66A37.49,37.49,0,0,0,19.54,12Z"/></svg>