<svg id="圖層_1" data-name="圖層 1" xmlns="http://www.w3.org/2000/svg" viewBox="0 0 24 24"><defs><style>.cls-1{fill:#231815;}.cls-2,.cls-3,.cls-4{fill:none;}.cls-2,.cls-3{stroke:#fff;}.cls-2,.cls-4{stroke-miterlimit:10;}.cls-3{stroke-linecap:round;stroke-linejoin:round;}.cls-4{stroke:#231815;}</style></defs><title>六大目標</title><rect class="cls-1" x="6.45" y="4.34" width="11.4" height="8.87" rx="2.48"/><line class="cls-2" x1="12.12" y1="6.59" x2="12.12" y2="5.7"/><line class="cls-2" x1="12.12" y1="11.77" x2="12.12" y2="10.88"/><polyline class="cls-3" points="13.5 6.94 10.82 6.94 10.82 8.9 13.42 8.9 13.42 10.52 10.73 10.52"/><path class="cls-4" d="M18.91,12a7.62,7.62,0,0,0,.88-3.38A7.88,7.88,0,0,0,4,8.59c0,2.21,1,3.8,2.18,5.55L8.72,18l3.2,4.87c1.45-2.21,2.86-4.46,4.33-6.66A37.49,37.49,0,0,0,18.91,12Z"/></svg>