<svg id="圖層_1" data-name="圖層 1" xmlns="http://www.w3.org/2000/svg" viewBox="0 0 24 24"><defs><style>.cls-1{fill:#16344F;}.cls-2{fill:none;stroke:#16344F;;stroke-miterlimit:10;}</style></defs><title>圖表目標icon</title><path class="cls-1" d="M12.3,4.64h0c-1.1,0-2,1.48-2,4a11.51,11.51,0,0,0,1.4,5.71h1.17a11.65,11.65,0,0,0,1.39-5.72c0-2.55-.89-4-2-4Z"/><path class="cls-1" d="M10.83,14.39h.05a12.51,12.51,0,0,1-1.3-5.71,6.54,6.54,0,0,1,1-3.82A3.94,3.94,0,0,0,7.28,8.68a7,7,0,0,0,3.43,5.72ZM14,4.86a6.7,6.7,0,0,1,1,3.81,12.55,12.55,0,0,1-1.29,5.72h.14a7.08,7.08,0,0,0,3.45-5.73A3.93,3.93,0,0,0,14,4.86Zm-.26,10.27H10.83a.6.6,0,0,0-.6.59v.89a.6.6,0,0,0,.6.59h2.95a.59.59,0,0,0,.59-.59v-.89a.59.59,0,0,0-.59-.59Z"/><path class="cls-2" d="M21.71,9.94A9.33,9.33,0,0,0,12.23.75,9.33,9.33,0,0,0,2.75,9.94c0,4.19,3.06,6.7,5.62,9.55,1.05,1.16,2.11,2.3,3.16,3.45a.92.92,0,0,0,1.36,0c1.91-2.08,3.92-4.09,5.71-6.28C20.17,14.72,21.71,12.55,21.71,9.94Z"/></svg>