<svg id="圖層_1" data-name="圖層 1" xmlns="http://www.w3.org/2000/svg" viewBox="0 0 24 24"><defs><style>.cls-1{fill:#231815;}.cls-2{fill:none;stroke:#231815;stroke-miterlimit:10;}</style></defs><title>六大目標</title><path class="cls-1" d="M11.6,16.12A19.8,19.8,0,0,1,9.21,14C5.87,10.61,6.32,5.23,6.32,5.23l5.33-2.16L17,5.23s.45,5.38-2.89,8.81a19.43,19.43,0,0,1-2.4,2.08H11.6"/><path class="cls-2" d="M18.64,12a7.62,7.62,0,0,0,.88-3.38,7.87,7.87,0,0,0-15.74,0c0,2.21,1,3.8,2.17,5.55L8.45,18l3.2,4.87c1.45-2.21,2.86-4.46,4.33-6.66A37.49,37.49,0,0,0,18.64,12Z"/></svg>