<svg id="圖層_1" data-name="圖層 1" xmlns="http://www.w3.org/2000/svg" viewBox="0 0 24 24"><defs><style>.cls-1{fill:#16344F;}.cls-2{fill:none;stroke:#16344F;stroke-miterlimit:10;}</style></defs><title>圖表目標icon</title><g id="Group_837" data-name="Group 837"><path id="Path_1326" data-name="Path 1326" class="cls-1" d="M11.91,4.37,5.21,8l6.7,3.61,5.33-2.8v4h1.29V8Z"/><path id="Path_1327" data-name="Path 1327" class="cls-1" d="M7.75,10.58v2.36l4.05,2.2L16,12.94V10.58L11.8,12.94Z"/></g><path class="cls-2" d="M21.64,9.94A9.34,9.34,0,0,0,12.15.75,9.34,9.34,0,0,0,2.67,9.94c0,4.19,3.06,6.7,5.63,9.55,1,1.16,2.1,2.3,3.15,3.45a.93.93,0,0,0,1.37,0c1.9-2.08,3.92-4.09,5.7-6.28C20.09,14.72,21.64,12.55,21.64,9.94Z"/></svg>