<svg id="圖層_1" data-name="圖層 1" xmlns="http://www.w3.org/2000/svg" viewBox="0 0 24 24"><defs><style>.cls-1{fill:#231815;}.cls-2{fill:none;stroke:#231815;stroke-miterlimit:10;}</style></defs><title>六大目標</title><path class="cls-1" d="M12.3,3.1h0c-1.1,0-2,1.48-2,4a11.48,11.48,0,0,0,1.4,5.71h1.17a11.61,11.61,0,0,0,1.39-5.71c0-2.56-.89-4-2-4Z"/><path class="cls-1" d="M10.83,12.84h.05a12.48,12.48,0,0,1-1.3-5.71,6.5,6.5,0,0,1,1-3.81A3.93,3.93,0,0,0,7.28,7.13a7,7,0,0,0,3.43,5.73l.12,0ZM14,3.31a6.74,6.74,0,0,1,1,3.82,12.5,12.5,0,0,1-1.29,5.71h.14a7.08,7.08,0,0,0,3.45-5.73A3.93,3.93,0,0,0,14,3.31Zm-.26,10.27H10.83a.6.6,0,0,0-.6.59v.89a.59.59,0,0,0,.6.59h2.95a.58.58,0,0,0,.59-.59v-.89a.59.59,0,0,0-.59-.59Z"/><path class="cls-2" d="M19.3,12a7.76,7.76,0,0,0,.88-3.38,7.88,7.88,0,0,0-15.75,0c0,2.21,1,3.8,2.18,5.55L9.11,18l3.19,4.87c1.45-2.21,2.86-4.46,4.33-6.66A37.55,37.55,0,0,0,19.3,12Z"/></svg>