<svg id="圖層_1" data-name="圖層 1" xmlns="http://www.w3.org/2000/svg" viewBox="0 0 24 24"><defs><style>.cls-1{fill:#231815;}.cls-2{fill:none;stroke:#231815;stroke-miterlimit:10;}</style></defs><title>六大目標</title><g id="Group_837" data-name="Group 837"><path id="Path_1326" data-name="Path 1326" class="cls-1" d="M12.08,3.48,5.38,7.09l6.7,3.6L17.42,7.9v4H18.7V7.09Z"/><path id="Path_1327" data-name="Path 1327" class="cls-1" d="M7.92,9.7v2.35L12,14.26l4.2-2.21V9.7L12,12.05Z"/></g><path class="cls-2" d="M19.48,12a7.76,7.76,0,0,0,.88-3.38,7.88,7.88,0,0,0-15.75,0c0,2.21,1,3.8,2.18,5.55L9.29,18l3.2,4.87c1.45-2.21,2.86-4.46,4.33-6.66A37.49,37.49,0,0,0,19.48,12Z"/></svg>