<svg id="圖層_1" data-name="圖層 1" xmlns="http://www.w3.org/2000/svg" viewBox="0 0 24 24"><defs><style>.cls-1{fill:#16344F;}.cls-2{fill:none;stroke:#16344F;stroke-miterlimit:10;}</style></defs><title>圖表目標icon</title><path class="cls-1" d="M11.59,17.43a19.43,19.43,0,0,1-2.4-2.08C5.85,11.92,6.3,6.54,6.3,6.54l5.33-2.16L17,6.54s.45,5.38-2.89,8.81a19.8,19.8,0,0,1-2.39,2.08h-.09"/><path class="cls-2" d="M21.12,9.94A9.34,9.34,0,0,0,11.63.75,9.33,9.33,0,0,0,2.15,9.94c0,4.19,3.06,6.7,5.62,9.55,1.05,1.16,2.11,2.3,3.16,3.45a.92.92,0,0,0,1.36,0c1.91-2.08,3.92-4.09,5.71-6.28C19.57,14.72,21.12,12.55,21.12,9.94Z"/></svg>