<svg id="圖層_1" data-name="圖層 1" xmlns="http://www.w3.org/2000/svg" viewBox="0 0 24 24"><defs><style>.cls-1{fill:none;stroke:#16344F;stroke-miterlimit:10;}.cls-2{fill:#16344F;}</style></defs><title>圖表目標icon</title><line class="cls-1" x1="4.53" y1="9.43" x2="9.32" y2="9.43"/><line class="cls-1" x1="6.92" y1="7.04" x2="6.92" y2="11.83"/><circle class="cls-2" cx="12.09" cy="7.7" r="1.85"/><path class="cls-2" d="M8.68,11.94v1.5h7V12A4.87,4.87,0,0,0,8.68,11.94Z"/><path class="cls-2" d="M15.14,9.54A1.84,1.84,0,1,0,14.59,6,9.65,9.65,0,0,1,15.14,9.54Z"/><path class="cls-2" d="M16.43,10.59a9.88,9.88,0,0,1,.46,2.79h1.8V11.92A5.43,5.43,0,0,0,16.43,10.59Z"/><path class="cls-1" d="M21.4,9.94A9.34,9.34,0,0,0,11.92.75,9.34,9.34,0,0,0,2.43,9.94c0,4.19,3.06,6.7,5.63,9.55,1,1.16,2.1,2.3,3.16,3.45a.92.92,0,0,0,1.36,0c1.91-2.08,3.92-4.09,5.7-6.28C19.85,14.72,21.4,12.55,21.4,9.94Z"/></svg>