<svg id="圖層_1" data-name="圖層 1" xmlns="http://www.w3.org/2000/svg" viewBox="0 0 24 24"><defs><style>.cls-1{fill:#16344F;}.cls-2{fill:none;stroke:#16344F;stroke-miterlimit:10;}</style></defs><title>圖表目標icon</title><polygon class="cls-1" points="11.87 4.04 5.65 9.94 18.09 9.94 11.87 4.04"/><rect class="cls-1" x="7.42" y="9.83" width="2.98" height="5.45"/><rect class="cls-1" x="13.16" y="9.83" width="2.98" height="5.45"/><rect class="cls-1" x="8.45" y="9.41" width="7.17" height="1.8"/><path class="cls-2" d="M21.36,9.94A9.34,9.34,0,0,0,11.87.75,9.34,9.34,0,0,0,2.39,9.94c0,4.19,3.06,6.7,5.63,9.55,1,1.16,2.1,2.3,3.15,3.45a.93.93,0,0,0,1.37,0c1.9-2.08,3.92-4.09,5.7-6.28C19.81,14.72,21.36,12.55,21.36,9.94Z"/></svg>